<svg width="24" height="24" viewBox="0 0 24 24" fill="none" xmlns="http://www.w3.org/2000/svg">
<g clip-path="url(#clip0)">
<path d="M0.358093 5.7414L1.99033 15.0732C8.47717 13.0507 14.4876 12.7281 22.0096 15.0732L23.6397 5.75377C15.8501 2.78209 8.08633 2.98477 0.358093 5.7414Z" fill="#9A9AA9"/>
<path d="M2.79027 3.33536C2.65827 2.57842 1.94319 2.06186 1.16286 2.19414C0.400302 2.32975 -0.11387 3.05449 0.0216923 3.82357L0.112067 4.33605C0.956942 4.03478 1.46849 3.8576 2.8161 3.4818L2.79027 3.33536Z" fill="#9A9AA9"/>
<path d="M4.97044 15.6979C3.73158 15.9915 3.40575 16.1051 2.25061 16.4652L3.19608 21.8279L5.96536 21.3397L4.97044 15.6979Z" fill="#9A9AA9"/>
<path d="M22.8385 2.19483C22.1012 2.06686 21.3602 2.47837 21.1863 3.46378C22.4637 3.816 23.0758 4.03355 23.8866 4.34302L23.9783 3.82289C24.1139 3.05527 23.5998 2.32927 22.8385 2.19483Z" fill="#9A9AA9"/>
<path d="M19.0292 15.6978L18.0345 21.3396L20.8038 21.8278L21.7493 16.465C20.587 16.1026 20.2657 15.9905 19.0292 15.6978Z" fill="#9A9AA9"/>
</g>
<defs>
<clipPath id="clip0">
<rect width="24" height="24" fill="white"/>
</clipPath>
</defs>
</svg>
