<svg width="24" height="24" viewBox="0 0 24 24" fill="none" xmlns="http://www.w3.org/2000/svg">
<path d="M13.976 9.5424L15.385 8.2021L13.422 7.92334C13.1948 7.89104 12.997 7.74962 12.8934 7.54431L12 5.77698L11.1067 7.54431C11.003 7.74962 10.8053 7.89104 10.578 7.92334L8.61499 8.2021L10.024 9.5424C10.1943 9.70515 10.2725 9.94201 10.232 10.1734L9.89552 12.087L11.6787 11.1717C11.8805 11.0687 12.1195 11.0687 12.3213 11.1717L14.1044 12.087L13.768 10.1734C13.7275 9.94196 13.8058 9.70515 13.976 9.5424Z" fill="#9A9AA9"/>
<path d="M12 0C6.96024 0 2.8598 4.10044 2.8598 9.1402C2.8598 14.18 6.96024 18.2804 12 18.2804C17.0398 18.2804 21.1402 14.18 21.1402 9.1402C21.1402 4.10044 17.0398 0 12 0ZM17.4064 8.21944L15.2189 10.3013L15.7345 13.2372C15.8342 13.8071 15.2361 14.2518 14.7203 13.9843L12 12.5877L9.27966 13.9843C8.76544 14.2484 8.16511 13.8114 8.26552 13.2373L8.78119 10.3013L6.59363 8.21949C6.16843 7.81374 6.39994 7.09575 6.9795 7.01377L10.0171 6.58256L11.3725 3.90136C11.6115 3.42759 12.3887 3.42759 12.6276 3.90136L13.983 6.58256L17.0206 7.01377C17.6001 7.0957 17.8316 7.81374 17.4064 8.21944Z" fill="#9A9AA9"/>
<path d="M12 19.6865C10.2227 19.6865 8.54898 19.2403 7.07837 18.4607V23.2957C7.07837 23.8582 7.70809 24.1915 8.17145 23.8806L12 21.3286L15.8286 23.8807C16.2941 24.1911 16.9216 23.8575 16.9216 23.2958V18.4607C15.451 19.2404 13.7774 19.6865 12 19.6865Z" fill="#9A9AA9"/>
</svg>
