<svg width="24" height="24" viewBox="0 0 24 24" fill="none" xmlns="http://www.w3.org/2000/svg">
<path d="M13.5755 4.94971H2.62582C1.18162 4.94971 0 6.13133 0 7.57553V16.4245C0 17.8687 1.18162 19.0504 2.62582 19.0504H13.5755C15.0197 19.0504 16.2013 17.8687 16.2013 16.4245V7.57553C16.2013 6.10507 15.0197 4.94971 13.5755 4.94971Z" fill="#9A9AA9"/>
<path d="M22.0569 6.39386C21.8993 6.42012 21.7418 6.49889 21.6105 6.57766L17.5142 8.9409V15.0328L21.6367 17.396C22.3982 17.8424 23.3435 17.5798 23.7899 16.8184C23.9212 16.582 24 16.3194 24 16.0306V7.91683C24 6.94528 23.0809 6.15753 22.0569 6.39386Z" fill="#9A9AA9"/>
</svg>
