<svg width="60" height="60" viewBox="0 0 60 60" fill="none" xmlns="http://www.w3.org/2000/svg">
<rect opacity="0.1" width="60" height="60" rx="30" fill="#FF8F6B"/>
<g clip-path="url(#clip0)">
<path d="M30.544 27.54V28.7466C30.544 29.1299 30.6205 29.4514 30.7716 29.7019C30.98 30.0476 31.322 30.2457 31.7104 30.2457C32.0909 30.2457 32.469 30.0604 32.8341 29.6953L36.8196 25.7098C37.6946 24.8348 37.6946 23.4109 36.8196 22.5359L32.8341 18.5504C32.469 18.1851 32.0909 18 31.7104 18C31.1298 18 30.544 18.4636 30.544 19.4991V20.595C24.8857 20.9291 20.2015 25.2715 19.5053 30.9567C19.4663 31.2742 19.6469 31.5782 19.9444 31.6959C20.0286 31.7292 20.1163 31.7454 20.2029 31.7454C20.4223 31.7454 20.6351 31.6426 20.7706 31.4575C22.6379 28.9061 25.636 27.3829 28.7906 27.3829C29.3751 27.3829 29.9628 27.4356 30.544 27.54Z" fill="#FF8F6B"/>
<path d="M40.0432 28.3041C39.7456 28.1862 39.4061 28.2843 39.217 28.5427C37.3499 31.0939 34.3517 32.6172 31.1972 32.6172C30.6127 32.6172 30.0249 32.5644 29.4437 32.4601V31.2534C29.4437 30.2179 28.8578 29.7543 28.2774 29.7543C27.8969 29.7543 27.5187 29.9396 27.1535 30.3049L23.168 34.2902C22.2931 35.1652 22.2931 36.5891 23.1682 37.4643L27.1535 41.4496C27.5187 41.8149 27.8969 42 28.2774 42C28.8578 42 29.4437 41.5364 29.4437 40.5009V39.4051C35.1022 39.0709 39.7863 34.7285 40.4824 29.0435C40.5214 28.7258 40.3409 28.4218 40.0432 28.3041Z" fill="#FF8F6B"/>
</g>
<defs>
<clipPath id="clip0">
<rect width="24" height="24" fill="white" transform="translate(18 18)"/>
</clipPath>
</defs>
</svg>
