<svg width="24" height="24" viewBox="0 0 24 24" fill="none" xmlns="http://www.w3.org/2000/svg">
<path d="M13.5755 4.94968H2.62582C1.18162 4.94968 0 6.1313 0 7.5755V16.4245C0 17.8687 1.18162 19.0503 2.62582 19.0503H13.5755C15.0197 19.0503 16.2013 17.8687 16.2013 16.4245V7.5755C16.2013 6.10504 15.0197 4.94968 13.5755 4.94968Z" fill="#9A9AA9"/>
<path d="M22.0569 6.39387C21.8993 6.42013 21.7418 6.4989 21.6105 6.57768L17.5142 8.94091V15.0328L21.6367 17.396C22.3982 17.8424 23.3435 17.5799 23.7899 16.8184C23.9212 16.582 24 16.3195 24 16.0306V7.91685C24 6.94529 23.0809 6.15755 22.0569 6.39387Z" fill="#9A9AA9"/>
</svg>
