<svg width="20" height="18" viewBox="0 0 34 18" fill="none" xmlns="http://www.w3.org/2000/svg">
<path d="M33.6105 8.05988C33.6101 8.05948 33.6097 8.05902 33.6093 8.05862L26.6695 1.15237C26.1497 0.635 25.3088 0.636925 24.7912 1.15689C24.2738 1.67678 24.2758 2.51768 24.7957 3.03512L29.455 7.67187H1.32812C0.594602 7.67187 0 8.26647 0 8.99999C0 9.73351 0.594602 10.3281 1.32812 10.3281H29.455L24.7958 14.9649C24.2759 15.4823 24.2739 16.3232 24.7913 16.8431C25.3088 17.3631 26.1498 17.3649 26.6696 16.8476L33.6093 9.94136C33.6097 9.94097 33.6101 9.9405 33.6105 9.9401C34.1307 9.42094 34.129 8.57732 33.6105 8.05988Z" fill="white"/>
</svg>
