<svg width="28" height="28" viewBox="0 0 28 28" fill="none" xmlns="http://www.w3.org/2000/svg">
<path d="M27.822 13.4556C27.5719 13.1134 21.6119 5.07715 13.9999 5.07715C6.38784 5.07715 0.427548 13.1134 0.17768 13.4553C-0.0592267 13.7799 -0.0592267 14.2202 0.17768 14.5448C0.427548 14.887 6.38784 22.9233 13.9999 22.9233C21.6119 22.9233 27.5719 14.887 27.822 14.5451C28.0593 14.2205 28.0593 13.7799 27.822 13.4556ZM13.9999 21.0772C8.3928 21.0772 3.53648 15.7433 2.09891 13.9996C3.53462 12.2544 8.38077 6.92329 13.9999 6.92329C19.6067 6.92329 24.4626 12.2562 25.9008 14.0009C24.4651 15.746 19.619 21.0772 13.9999 21.0772Z" fill="#901CEE"/>
<path d="M13.9999 8.46143C10.946 8.46143 8.46143 10.946 8.46143 13.9999C8.46143 17.0538 10.946 19.5384 13.9999 19.5384C17.0538 19.5384 19.5384 17.0538 19.5384 13.9999C19.5384 10.946 17.0538 8.46143 13.9999 8.46143ZM13.9999 17.6922C11.9639 17.6922 10.3076 16.0359 10.3076 13.9999C10.3076 11.9639 11.9639 10.3076 13.9999 10.3076C16.0359 10.3076 17.6922 11.9639 17.6922 13.9999C17.6922 16.0359 16.0359 17.6922 13.9999 17.6922Z" fill="#901CEE"/>
</svg>
