<svg width="14" height="14" viewBox="0 0 14 14" fill="none" xmlns="http://www.w3.org/2000/svg">
<g clip-path="url(#clip0)">
<path d="M5.67842 11.375C4.31166 11.375 3.19922 10.2626 3.19922 8.89584V2.91675H2.17842C1.29349 2.91675 0.574219 3.63591 0.574219 4.52084V12.3958C0.574219 13.2808 1.29349 14 2.17842 14H9.47002C10.3549 14 11.0742 13.2808 11.0742 12.3958V11.375H5.67842Z" fill="#030229" fill-opacity="0.4"/>
<path d="M13.4075 1.6042C13.4075 0.718094 12.6894 0 11.8034 0H5.67842C4.79231 0 4.07422 0.718094 4.07422 1.6042V8.8958C4.07422 9.78191 4.79231 10.5 5.67842 10.5H11.8034C12.6894 10.5 13.4075 9.78191 13.4075 8.8958V1.6042Z" fill="#030229" fill-opacity="0.4"/>
</g>
<defs>
<clipPath id="clip0">
<rect width="14" height="14" fill="white"/>
</clipPath>
</defs>
</svg>
