<svg width="30" height="30" viewBox="0 0 30 30" fill="none" xmlns="http://www.w3.org/2000/svg">
<rect width="30" height="30" rx="5" fill="#CBFFD5"/>
<g clip-path="url(#clip0)">
<path d="M21.6551 19.9381L21.6552 10.745C21.6552 10.4826 21.5523 10.2357 21.3658 10.0492C21.1792 9.86251 20.9323 9.75986 20.6699 9.75976L19.8352 9.75986C19.5731 9.75976 19.3259 9.86251 19.1393 10.0491C18.9528 10.2356 18.8442 10.4887 18.8443 10.7508L18.8384 16.1197L10.319 7.60038C9.93492 7.21627 9.33071 7.21348 8.9465 7.59769L8.35636 8.18783C7.97215 8.57204 7.94462 9.20657 8.32873 9.59068L16.8785 18.1405L11.4642 18.131C11.2019 18.1311 10.9595 18.2291 10.7729 18.4157C10.5865 18.6021 10.486 18.847 10.486 19.1092L10.4873 19.9426C10.4873 20.2051 10.5906 20.4513 10.7772 20.638C10.9637 20.8245 11.211 20.9269 11.4734 20.9269L20.6664 20.9269C20.9296 20.9268 21.1776 20.8234 21.3639 20.6361C21.5517 20.4492 21.6553 20.2011 21.6551 19.9381Z" fill="#2CC84A"/>
</g>
<defs>
<clipPath id="clip0">
<rect width="18" height="18" fill="white" transform="translate(15 27) rotate(-135)"/>
</clipPath>
</defs>
</svg>
