<svg width="30" height="30" viewBox="0 0 30 30" fill="none" xmlns="http://www.w3.org/2000/svg">
<rect width="30" height="30" rx="5" fill="#FFDDDD"/>
<g clip-path="url(#clip0)">
<path d="M8.34494 8.60611L8.34484 17.7992C8.34484 18.0616 8.44769 18.3085 8.63416 18.495C8.82084 18.6817 9.06773 18.7843 9.33005 18.7844L10.1648 18.7843C10.4269 18.7844 10.6741 18.6817 10.8607 18.4951C11.0472 18.3086 11.1558 18.0555 11.1557 17.7934L11.1616 12.4245L19.681 20.9438C20.0651 21.3279 20.6693 21.3307 21.0535 20.9465L21.6436 20.3564C22.0279 19.9721 22.0554 19.3376 21.6713 18.9535L13.1215 10.4037L18.5358 10.4131C18.7981 10.413 19.0405 10.315 19.2271 10.1285C19.4135 9.94211 19.514 9.69718 19.514 9.43497L19.5127 8.60155C19.5127 8.33913 19.4094 8.09286 19.2228 7.90618C19.0363 7.71971 18.789 7.61727 18.5266 7.61727L9.33357 7.61727C9.07043 7.61738 8.82239 7.72075 8.63613 7.90805C8.44832 8.09503 8.34474 8.34307 8.34494 8.60611Z" fill="#E71D36"/>
</g>
<defs>
<clipPath id="clip0">
<rect width="18" height="18" fill="white" transform="translate(15 27) rotate(-135)"/>
</clipPath>
</defs>
</svg>
