<svg width="24" height="24" viewBox="0 0 24 24" fill="none" xmlns="http://www.w3.org/2000/svg">
<g clip-path="url(#clip0)">
<path d="M0.358093 5.74144L1.99033 15.0732C8.47717 13.0508 14.4876 12.7281 22.0096 15.0732L23.6397 5.75382C15.8501 2.78213 8.08633 2.98482 0.358093 5.74144Z" fill="#9A9AA9"/>
<path d="M2.79027 3.33539C2.65827 2.57845 1.94319 2.06189 1.16286 2.19417C0.400302 2.32978 -0.11387 3.05452 0.0216923 3.8236L0.112067 4.33608C0.956942 4.03481 1.46849 3.85763 2.8161 3.48183L2.79027 3.33539Z" fill="#9A9AA9"/>
<path d="M4.97044 15.6979C3.73158 15.9915 3.40575 16.1051 2.25061 16.4652L3.19608 21.8279L5.96536 21.3397L4.97044 15.6979Z" fill="#9A9AA9"/>
<path d="M22.8385 2.19487C22.1012 2.06691 21.3602 2.47842 21.1863 3.46383C22.4637 3.81605 23.0758 4.03359 23.8866 4.34306L23.9783 3.82294C24.1139 3.05531 23.5998 2.32931 22.8385 2.19487Z" fill="#9A9AA9"/>
<path d="M19.0292 15.6978L18.0345 21.3397L20.8038 21.8279L21.7493 16.465C20.587 16.1026 20.2657 15.9906 19.0292 15.6978Z" fill="#9A9AA9"/>
</g>
<defs>
<clipPath id="clip0">
<rect width="24" height="24" fill="white"/>
</clipPath>
</defs>
</svg>
