<svg width="30" height="30" viewBox="0 0 30 30" fill="none" xmlns="http://www.w3.org/2000/svg">
<g clip-path="url(#clip0)">
<path d="M29.5261 18.6535C27.5227 26.6893 19.3837 31.5797 11.347 29.5758C3.31362 27.5725 -1.5768 19.433 0.427438 11.3979C2.42992 3.36119 10.5689 -1.5296 18.6031 0.473753C26.6393 2.47711 31.5294 10.6175 29.5258 18.6536L29.526 18.6535H29.5261Z" fill="#F7931A"/>
<path d="M21.6144 12.8629C21.913 10.8667 20.3932 9.79373 18.3151 9.07792L18.9892 6.37393L17.3432 5.96378L16.687 8.59658C16.2542 8.48866 15.8098 8.38696 15.3682 8.28615L16.0292 5.63597L14.3842 5.22583L13.7097 7.92894C13.3516 7.84741 12.9999 7.76683 12.6587 7.68193L12.6606 7.67343L10.3907 7.1066L9.95286 8.86463C9.95286 8.86463 11.1741 9.14456 11.1483 9.16179C11.8149 9.32815 11.9354 9.76938 11.9154 10.1191L11.1474 13.1996C11.1933 13.2113 11.2529 13.2281 11.3186 13.2545C11.2637 13.2409 11.2052 13.226 11.1446 13.2115L10.0682 17.5268C9.98674 17.7293 9.77998 18.0332 9.31396 17.9178C9.33046 17.9417 8.11763 17.6192 8.11763 17.6192L7.30042 19.5034L9.44242 20.0374C9.84091 20.1373 10.2314 20.2418 10.616 20.3402L9.93483 23.0752L11.5789 23.4853L12.2535 20.7793C12.7026 20.9013 13.1385 21.0137 13.5652 21.1198L12.8929 23.813L14.539 24.2231L15.2201 21.4933C18.0269 22.0244 20.1373 21.8103 21.0257 19.2716C21.7415 17.2276 20.99 16.0486 19.5134 15.2798C20.5889 15.0318 21.399 14.3244 21.615 12.8631L21.6145 12.8628L21.6144 12.8629ZM17.8537 18.1364C17.345 20.1804 13.9036 19.0755 12.7878 18.7984L13.6917 15.175C14.8074 15.4536 18.3853 16.0048 17.8538 18.1364H17.8537ZM18.3627 12.8333C17.8987 14.6925 15.0344 13.7479 14.1052 13.5163L14.9247 10.2301C15.8538 10.4617 18.8461 10.894 18.3629 12.8333H18.3627Z" fill="white"/>
</g>
<defs>
<clipPath id="clip0">
<rect width="30" height="30" fill="white"/>
</clipPath>
</defs>
</svg>
