<svg width="18" height="18" viewBox="0 0 18 18" fill="none" xmlns="http://www.w3.org/2000/svg">
<g clip-path="url(#clip0)">
<path d="M7.3125 14.625C5.55525 14.625 4.125 13.1948 4.125 11.4375V3.75H2.8125C1.67475 3.75 0.75 4.67475 0.75 5.8125V15.9375C0.75 17.0753 1.67475 18 2.8125 18H12.1875C13.3252 18 14.25 17.0753 14.25 15.9375V14.625H7.3125Z" fill="#F2B10F"/>
<path d="M17.25 2.0625C17.25 0.92325 16.3267 0 15.1875 0H7.3125C6.17325 0 5.25 0.92325 5.25 2.0625V11.4375C5.25 12.5767 6.17325 13.5 7.3125 13.5H15.1875C16.3267 13.5 17.25 12.5767 17.25 11.4375V2.0625Z" fill="#F2B10F"/>
</g>
<defs>
<clipPath id="clip0">
<rect width="18" height="18" fill="white"/>
</clipPath>
</defs>
</svg>
