<svg width="30" height="30" viewBox="0 0 30 30" fill="none" xmlns="http://www.w3.org/2000/svg">
<path d="M15 0C23.285 0 30 6.71632 30 15C30 23.285 23.285 30 15 30C6.71632 30 0 23.2844 0 15C0 6.71632 6.71632 0 15 0Z" fill="#F5AC37"/>
<path d="M15.5524 16.0592H21.2522C21.3737 16.0592 21.4311 16.0592 21.4398 15.8999C21.4864 15.3201 21.4864 14.7369 21.4398 14.1564C21.4398 14.0436 21.3838 13.9971 21.2616 13.9971H9.91816C9.77776 13.9971 9.73996 14.0436 9.73996 14.1753V15.8439C9.73996 16.0592 9.73996 16.0592 9.96474 16.0592H15.5524ZM20.8033 12.047C20.8195 12.0044 20.8195 11.9579 20.8033 11.916C20.7081 11.7088 20.5954 11.511 20.4645 11.3254C20.2674 11.0081 20.0352 10.7159 19.7706 10.4533C19.6457 10.2947 19.5012 10.1522 19.3392 10.0314C18.5279 9.34087 17.5633 8.85216 16.5265 8.60646C16.0033 8.48901 15.4687 8.43298 14.9328 8.43771H9.89858C9.75818 8.43771 9.73928 8.49373 9.73928 8.61591V11.9437C9.73928 12.0841 9.73928 12.1219 9.91748 12.1219H20.7358C20.7358 12.1219 20.8296 12.103 20.8485 12.047H20.8026H20.8033ZM20.8033 18.0093C20.644 17.9918 20.4834 17.9918 20.3241 18.0093H9.92761C9.78721 18.0093 9.73996 18.0093 9.73996 18.197V21.4505C9.73996 21.6003 9.73996 21.6381 9.92761 21.6381H14.7276C14.9571 21.6557 15.1866 21.6395 15.4114 21.5916C16.108 21.5416 16.7931 21.3904 17.4465 21.1413C17.6841 21.059 17.9136 20.9517 18.1303 20.8227H18.1958C19.321 20.2375 20.235 19.3181 20.8114 18.1895C20.8114 18.1895 20.8769 18.0478 20.8033 18.0107V18.0093ZM7.85601 23.325V23.269V21.0846V20.3442V18.1409C7.85601 18.0188 7.85601 18.0005 7.70616 18.0005H5.67169C5.55897 18.0005 5.51239 18.0005 5.51239 17.8507V16.0693H7.68726C7.80876 16.0693 7.85601 16.0693 7.85601 15.91V14.1476C7.85601 14.0349 7.85601 14.0072 7.70616 14.0072H5.67169C5.55897 14.0072 5.51239 14.0072 5.51239 13.8573V12.2076C5.51239 12.1043 5.51239 12.0767 5.66224 12.0767H7.67781C7.81821 12.0767 7.85601 12.0767 7.85601 11.8985V6.84537C7.85601 6.69552 7.85601 6.65771 8.04367 6.65771H15.0745C15.5848 6.67797 16.0918 6.73399 16.5933 6.82647C17.6267 7.01749 18.6197 7.38672 19.5276 7.9139C20.1297 8.26828 20.6838 8.69624 21.1773 9.18899C21.5485 9.57442 21.8833 9.99157 22.1803 10.4357C22.4753 10.886 22.7203 11.3672 22.9127 11.8701C22.9363 12.0011 23.0619 12.0895 23.1928 12.0672H24.8709C25.0862 12.0672 25.0862 12.0672 25.0957 12.2738V13.8114C25.0957 13.9613 25.0397 13.9991 24.8891 13.9991H23.5951C23.4642 13.9991 23.4264 13.9991 23.4358 14.1678C23.4871 14.7389 23.4871 15.312 23.4358 15.883C23.4358 16.0423 23.4358 16.0612 23.6147 16.0612H25.095C25.1605 16.1456 25.095 16.23 25.095 16.315C25.1045 16.4237 25.1045 16.5337 25.095 16.6424V17.7771C25.095 17.9364 25.0484 17.9837 24.9074 17.9837H23.1355C23.0119 17.96 22.8918 18.039 22.8634 18.1619C22.4416 19.2587 21.7666 20.2422 20.8944 21.0306C20.5758 21.3175 20.241 21.5875 19.8914 21.8366C19.5161 22.0526 19.1509 22.2774 18.7661 22.4556C18.0581 22.7742 17.3156 23.0091 16.5535 23.1583C15.8299 23.2879 15.0961 23.3466 14.3597 23.3365H7.85331V23.327L7.85601 23.325Z" fill="#FEFEFD"/>
</svg>
