<svg width="30" height="30" viewBox="0 0 30 30" fill="none" xmlns="http://www.w3.org/2000/svg">
<path d="M15 30C23.2843 30 30 23.2843 30 15C30 6.71573 23.2843 0 15 0C6.71573 0 0 6.71573 0 15C0 23.2843 6.71573 30 15 30Z" fill="#988430"/>
<path d="M15 29.5195C23.0189 29.5195 29.5195 23.0189 29.5195 15C29.5195 6.98108 23.0189 0.480469 15 0.480469C6.98108 0.480469 0.480469 6.98108 0.480469 15C0.480469 23.0189 6.98108 29.5195 15 29.5195Z" fill="#7A6A2A"/>
<path d="M15 29.2136C22.8499 29.2136 29.2136 22.85 29.2136 15C29.2136 7.15005 22.8499 0.786407 15 0.786407C7.15002 0.786407 0.786377 7.15005 0.786377 15C0.786377 22.85 7.15002 29.2136 15 29.2136Z" fill="#BA9F33"/>
<path fill-rule="evenodd" clip-rule="evenodd" d="M6.55823 13.3981C6.47327 13.3205 6.38351 13.2427 6.30095 13.1651C6.21839 13.0875 6.13359 13.0098 6.04863 12.9322L5.79615 12.6922C5.75487 12.6509 5.71119 12.6146 5.66991 12.5731C5.62863 12.5368 5.58015 12.4955 5.53887 12.459C5.20383 12.1411 4.86687 11.8232 4.53647 11.5051C4.87871 11.8182 5.21375 12.1291 5.55599 12.4469L5.67487 12.5659C5.71615 12.607 5.75983 12.6435 5.80111 12.6848L6.05343 12.9178C6.13839 12.9954 6.22095 13.0731 6.30591 13.1578C6.39087 13.2424 6.47343 13.3203 6.55839 13.3978L6.55823 13.3981ZM2.11167 13.3501C2.11167 13.3501 3.33007 13.4762 3.92479 13.5611C4.47567 13.6389 6.19903 13.9034 6.19903 13.9034L2.11167 13.3501ZM2.11167 13.3501C2.45391 13.3792 2.79615 13.4155 3.13839 13.452C3.31311 13.469 3.48063 13.4883 3.64815 13.5053L3.90527 13.5346C3.99023 13.5466 4.07279 13.5587 4.15775 13.5709L5.17727 13.7334L5.68687 13.8184C5.85439 13.8475 6.02191 13.8792 6.19663 13.9083C6.02911 13.8914 5.85439 13.867 5.68687 13.8427L5.17727 13.7699L4.15775 13.6195C4.07279 13.6074 3.99023 13.5902 3.90527 13.5782L3.64799 13.5486C3.48047 13.5317 3.30575 13.5074 3.13823 13.4878C2.79599 13.4467 2.45375 13.4029 2.11151 13.3496L2.11167 13.3501ZM6.07775 14.2208C6.07775 14.2208 4.77679 14.551 4.33743 14.6773C3.90543 14.7962 2.59711 15.1942 2.59711 15.1942L6.07759 14.221L6.07775 14.2208Z" fill="#CFB66C"/>
<path fill-rule="evenodd" clip-rule="evenodd" d="M6.07759 14.2208C5.78879 14.3058 5.50159 14.3883 5.20863 14.4661L4.33967 14.699C4.05087 14.784 3.76367 14.8666 3.47567 14.9515L3.04367 15.0704C2.90047 15.1117 2.75487 15.148 2.60687 15.1894C2.74991 15.1414 2.89567 15.0923 3.03887 15.051L3.47087 14.9128C3.75967 14.8229 4.04687 14.7379 4.33487 14.6482C4.62847 14.5754 4.91743 14.4976 5.21103 14.4272C5.49007 14.3568 5.78383 14.2866 6.07759 14.221V14.2208ZM2.77919 15.9952C2.92223 15.9418 4.57279 15.1725 4.95631 14.9928C5.14831 14.9029 5.70639 14.7048 5.70639 14.7048L2.77919 15.9952Z" fill="#CFB66C"/>
<path fill-rule="evenodd" clip-rule="evenodd" d="M2.77921 15.9952C2.90529 15.9472 3.02433 15.8885 3.14561 15.8326L3.50481 15.6651L4.22577 15.3181C4.46577 15.204 4.69905 15.0781 4.94657 14.9709C5.07281 14.9176 5.19905 14.8739 5.32513 14.8326L5.51713 14.772C5.58257 14.755 5.64337 14.7355 5.70914 14.7186C5.46913 14.8326 5.21649 14.9298 4.97617 15.0413C4.73617 15.1603 4.49073 15.2574 4.24305 15.3642L3.51009 15.6869C3.26401 15.7866 3.02401 15.8933 2.77905 15.9952H2.77921ZM2.93921 16.6672C2.93921 16.6672 4.43425 15.791 4.94881 15.5094C5.21825 15.359 6.08962 14.9269 6.08962 14.9269L2.93921 16.6672Z" fill="#CFB66C"/>
<path fill-rule="evenodd" clip-rule="evenodd" d="M2.93936 16.6676C3.19168 16.5122 3.44896 16.3544 3.70624 16.1943L4.09024 15.9611C4.22128 15.8835 4.34752 15.8107 4.48112 15.7331C4.61216 15.6554 4.7384 15.5778 4.87184 15.505C4.93536 15.4658 5.00192 15.4317 5.07088 15.4031L5.27472 15.3011C5.54416 15.1701 5.8136 15.0365 6.0976 14.9224C5.84032 15.0851 5.57568 15.2235 5.3112 15.3666C5.18016 15.4394 5.04656 15.505 4.91552 15.5778C4.78448 15.6506 4.65824 15.7283 4.52464 15.7987C4.3936 15.8763 4.26736 15.9491 4.13392 16.0195L3.73824 16.2355L2.93968 16.6676H2.93936ZM6.0776 15.1189C6.0776 15.1189 5.148 15.8325 4.84704 16.0607C4.54608 16.2888 3.66016 16.9296 3.66016 16.9296L6.0776 15.1189Z" fill="#CFB66C"/>
<path fill-rule="evenodd" clip-rule="evenodd" d="M11.4126 20.8738L10.937 19.9733L11.2136 18.847L13.1869 18.085L12.347 16.3618L12.7621 14.6214L13.5413 13.063L15.9491 12.6845L17.7184 10.9976L21.5389 11.2864L22.2888 15.3714L20.8446 20.5146L20.0219 23.1773L16.6869 23.3035L15.1384 22.2307L13.3253 21.4733L11.4126 20.8738Z" fill="#E2CC85"/>
<path fill-rule="evenodd" clip-rule="evenodd" d="M17.2622 20.8446C17.2622 20.8446 16.8009 21.0558 16.0142 21.0072C15.7865 20.7014 14.192 20.5582 14.192 20.5582C14.192 20.5582 13.9929 20.4976 13.6409 20.6432C13.2867 20.7872 12.9517 20.7694 12.6385 20.847C12.3254 20.9246 12.0145 20.517 11.7745 20.432C11.5345 20.3422 11.2163 20.1262 11.2163 20.1262L10.5443 20.0606L9.19487 19.4902L7.05103 17.3544L6.46847 18.2664L6.28879 19.395L6.93695 20.7325L8.68207 22.3222L12.0849 23.1862L14.1019 22.592L16.6286 21.524L17.2622 20.8445V20.8446Z" fill="#F1D789"/>
<path fill-rule="evenodd" clip-rule="evenodd" d="M5.17234 13.2962L5.60434 11.988L6.11906 11.1432L7.77665 11.0048L7.27905 12.4563L5.8933 14.9224L6.4685 17.1238L5.44914 17.6334L5.13586 17.153L4.88354 16.051L4.86658 14.8131L5.17234 13.2962Z" fill="#F4ECB4"/>
<path fill-rule="evenodd" clip-rule="evenodd" d="M7.03153 20.7549L6.71361 20.3107C6.71361 20.3107 6.62865 20.0995 6.67729 19.915C6.72529 19.7281 6.71841 19.716 6.69425 19.6456C6.67009 19.5752 6.46609 19.3325 6.47825 19.1237C6.49025 18.9125 6.46129 18.8421 6.61649 18.6747C6.77905 18.5121 6.73057 18.2305 6.73057 18.2305L6.94177 18.3616L6.98977 18.2888C6.98977 18.2888 7.06737 18.3494 7.06737 18.4441C7.08433 18.3131 7.01393 17.7062 7.17409 17.568C7.33425 17.4297 7.61825 18.216 7.61825 18.216L7.44353 17.0752L6.99441 15.9054L6.19585 14.8374L6.14785 13.6601V13.5582C6.14785 13.5582 5.78129 14.1214 5.67937 14.5662C5.60657 14.872 5.78129 15.2433 5.74497 15.6827C5.71569 16.1197 5.67937 16.0856 5.78609 16.2587C5.89281 16.4318 6.15265 16.7878 6.05073 17.0451C5.96097 17.2661 5.65505 17.1107 5.65505 17.1107C5.65505 17.1107 5.59441 17.2902 5.51185 17.3558C5.48273 17.2491 5.45121 17.1811 5.39297 17.1158C5.38801 17.1571 5.37601 17.2129 5.37601 17.2129C5.37601 17.2129 5.32257 17.0454 5.26913 16.8342C5.19649 16.5528 5.11873 16.1814 5.04833 15.9824C5.01921 16.0965 4.94641 16.4435 4.94641 16.4435L4.98769 16.9776L5.18673 17.7105L5.37873 18.1905L5.56561 18.7779L5.72801 19.1725L5.85905 19.4734L5.97313 20.1507L6.52401 20.7331L6.81777 20.8643L7.03121 20.755L7.03153 20.7549Z" fill="#F3E19D"/>
<path fill-rule="evenodd" clip-rule="evenodd" d="M5.46111 12.2282C5.46111 12.2282 5.06543 12.9002 4.95151 13.5776C4.83759 14.255 4.73551 14.9709 4.80751 15.8931C4.88031 16.8229 5.01871 17.3931 5.13039 17.801C5.32239 18.4782 5.81967 19.42 5.81967 19.42L5.83663 19.3835C5.75304 19.2251 5.68633 19.0583 5.63759 18.8859C5.57199 18.6286 5.54767 18.3229 5.48703 18.1845C5.43359 18.0462 5.34383 17.9272 5.30015 17.7573C5.25887 17.5947 5.25215 17.3374 5.12543 17.1458C5.07199 17.068 5.00639 16.8642 4.98703 16.6603C4.96271 16.3544 4.99919 16.0122 4.97007 15.7307C4.91663 15.2622 4.88031 14.9443 4.92879 14.699C4.97727 14.4538 5.22991 13.7574 5.38527 13.204C5.48719 12.8496 5.42639 12.551 5.61327 12.2427C5.80015 11.937 5.91439 11.6675 5.95551 11.4806C6.00351 11.3107 5.46047 12.2282 5.46047 12.2282H5.46111Z" fill="#F2E8B0"/>
<path fill-rule="evenodd" clip-rule="evenodd" d="M7.33746 11.9587C7.33746 11.9587 7.13362 12.0195 7.03649 12.1263C6.93937 12.2282 6.89809 12.3131 6.76705 12.4855C6.63601 12.6578 6.62865 12.7986 6.52177 13.0146C6.41505 13.2258 6.17953 13.5437 6.15041 13.6578C6.12129 13.7719 6.07281 14.3058 6.01217 14.5583C5.95873 14.8107 6.07281 15.1215 6.07281 15.1215L6.21105 15.0922C6.21105 15.0922 6.21105 15.2719 6.34945 15.3933C6.48769 15.5122 6.51201 14.9903 6.51201 14.9903L7.02897 13.2451L7.80802 12.716L7.89298 12.2888L7.33714 11.9587H7.33746Z" fill="#F5EEC0"/>
<path fill-rule="evenodd" clip-rule="evenodd" d="M7.716 12.7501C7.716 12.7501 7.34944 12.7743 7.16992 12.9055C7.09712 12.9587 7.068 13.0024 6.9904 13.068C6.8472 13.1869 6.70144 13.2962 6.6312 13.452C6.55344 13.6072 6.46848 13.8427 6.41024 14.2869C6.38592 14.4738 6.38592 14.6461 6.36896 14.7967C6.34464 15.0005 6.30832 15.1631 6.32768 15.2767C6.352 15.5096 6.59232 15.6311 6.61568 15.8955L7.11328 15.6432L7.58176 13.796L8.57696 13.172L8.01376 12.541L7.71536 12.749L7.716 12.7501Z" fill="#E6DB9D"/>
<path fill-rule="evenodd" clip-rule="evenodd" d="M5.09089 25.1887C5.09297 25.1704 5.09505 25.1522 5.09713 25.1335C5.16977 24.5094 5.18209 24.0365 5.23537 23.7403C5.31297 23.3205 5.36641 23.1643 5.35425 23.0072C5.33729 22.7549 5.31793 22.5704 5.34225 22.3762C5.37857 22.1189 5.63105 21.8131 5.62385 21.6019C5.61889 21.4344 5.53393 21.3253 5.46113 21.2234C5.38833 21.1214 5.33009 21.0365 5.33009 21.0365C5.33009 21.0365 5.82769 20.6942 5.82289 19.3155C5.83305 19.3184 5.84283 19.3225 5.85201 19.3277L6.09713 20.0242L6.26465 20.228L6.90785 21.427L7.73553 22.2306L8.95873 23.0533L9.72577 23.888L9.80337 26.1138L8.80097 27.4147L8.63681 27.712C7.3326 27.0573 6.13665 26.2062 5.09073 25.1885L5.09089 25.1887Z" fill="#E5CB7A"/>
<path fill-rule="evenodd" clip-rule="evenodd" d="M8.15295 27.3179C8.15295 27.3179 8.16991 27.0413 8.39807 26.8616C8.43455 26.9223 8.45871 26.9807 8.45151 27.0242C8.49279 26.9515 8.78159 26.4855 9.43455 26.364C10.0875 26.2451 10.2453 25.7695 10.2453 25.7695L11.631 24.5098L13.216 23.051L15.1432 22.3738L16.0438 22.1528C16.0438 22.1528 16.0608 22.2184 16.0269 22.364C16.1942 22.352 16.5656 22.267 16.9515 22.131C17.1069 22.0704 17.2526 22.0461 17.3302 22.1262C17.4443 22.233 17.4613 22.4854 17.4685 22.6358C17.6554 22.5946 17.8714 22.415 18.0445 22.432C18.3213 22.4611 18.5664 22.7864 18.848 22.7864C19.2193 22.7864 19.3867 22.5583 19.6466 22.3786C19.8019 22.2719 20.0251 22.1386 20.1513 22.0485C20.4523 21.8275 23.6368 20.8542 23.6368 20.8542L24.7533 20.927L24.9329 22.1261L24.8369 25.2605C24.8251 25.2719 24.8133 25.2837 24.8013 25.2951L19.7248 27.9464L12.688 29.0251C11.1117 28.7676 9.5906 28.2444 8.18943 27.4778L8.15343 27.3178L8.15295 27.3179Z" fill="#D8C173"/>
<path fill-rule="evenodd" clip-rule="evenodd" d="M5.51761 25.5874C5.61761 25.3782 5.70753 25.2034 5.72337 25.1408C5.73585 25.2669 5.75873 25.5435 5.80481 25.8376C5.70806 25.7554 5.61233 25.6719 5.51761 25.5872V25.5874Z" fill="#F1D789"/>
<path fill-rule="evenodd" clip-rule="evenodd" d="M10.6579 28.5371L11.568 28.284L11.6456 28.3083C11.6456 28.3083 11.6869 28.3326 11.6869 28.415C11.801 28.3496 11.8981 28.3616 11.9685 28.3181C12.0048 28.3957 12.0411 28.6529 12.2014 28.6845C12.3688 28.7209 12.5485 28.6117 12.7306 28.4734C12.9101 28.3302 13.1146 28.1505 13.2693 28.0777C13.326 28.1821 13.3763 28.2899 13.4198 28.4005C13.6237 28.2379 13.9781 27.5777 14.4829 27.5897C14.6288 27.2449 14.8725 26.9505 15.184 26.7427C15.6525 26.4248 15.9461 26.4004 16.3126 26.4296C16.4582 26.2404 16.6376 26.08 16.8418 25.9563C16.9024 25.9806 17.0699 26.0825 17.2787 25.9854C17.4899 25.8884 17.7277 25.5121 18.0408 25.4636C18.2095 25.4404 18.3811 25.4764 18.5262 25.5656C18.5262 25.5656 19.4382 24.6601 20.0675 24.3592C20.0432 24.2864 19.9947 24.0121 20.7325 23.4052C20.7738 23.4417 20.7446 23.5436 20.7737 23.5492C20.7857 23.5492 20.9657 23.4716 21.1936 23.2968C21.4752 23.0857 21.8125 22.8648 22.0163 22.8041C22.4003 22.69 22.8077 22.923 22.8077 22.923C22.8423 22.8987 22.8809 22.8806 22.9217 22.8696C23.0187 22.8526 23.0891 22.8404 23.1425 22.8216C23.1377 22.9478 23.2081 23.1638 23.1425 23.3507C23.2185 23.3934 23.299 23.4276 23.3825 23.4526C23.3414 23.5424 23.2515 23.7705 23.1011 23.8798C23.2272 23.9404 23.2441 24.0108 23.4238 24.0718C23.351 24.1737 23.2318 24.3486 23.1787 24.4558C23.1253 24.5699 22.9334 25.0432 22.8485 25.2227C22.7587 25.4024 22.6374 25.7324 22.579 25.7987C22.5206 25.8649 22.3096 26.1457 22.147 26.284C22.291 26.2305 22.8801 26.051 23.1301 25.983C23.0557 26.0921 22.6785 26.6516 22.316 27.1897C20.5801 28.2302 18.6423 28.8887 16.6319 29.1215C14.6215 29.3542 12.5845 29.1558 10.6568 28.5395L10.6579 28.5371Z" fill="#E0CD81"/>
<path fill-rule="evenodd" clip-rule="evenodd" d="M7.77598 12.6845C7.77598 12.6845 7.56494 12.6845 7.52366 12.7136C7.48238 12.7427 7.73486 12.8035 7.81246 12.8326C7.89006 12.8617 8.05758 12.9952 8.10126 13.1021C8.14254 13.204 9.61823 13.7985 9.61823 13.7985L10.6619 13.7451L11.0217 13.248L10.3373 12.6485L10.8173 11.2334L10.1814 11.3353L8.65231 12.2473L7.88526 12.5411L7.77598 12.6845Z" fill="#DFC57C"/>
<path fill-rule="evenodd" clip-rule="evenodd" d="M10.068 13.153C10.0831 13.1774 10.1043 13.1974 10.1296 13.2111C10.1549 13.2247 10.1833 13.2314 10.212 13.2306C10.428 13.2306 10.6269 13.284 10.7094 13.3931C10.8478 13.568 11.2314 14.1263 11.2314 14.1263L12.1488 14.4563L12.208 13.376L11.2056 12.6795L10.0648 13.0994V13.1528H10.0673L10.068 13.153Z" fill="#E5CC7C"/>
<path fill-rule="evenodd" clip-rule="evenodd" d="M9.88801 13.5534C9.88801 13.5534 10.0554 13.5656 10.2666 13.4878C10.4778 13.4101 10.8248 13.2427 10.9754 13.3083C11.1864 13.3981 11.1427 13.6797 11.3711 13.9323C11.5093 14.0877 11.7618 14.0829 11.905 14.2504C12.0482 14.4179 12.5408 14.3402 12.5408 14.3402L12.7277 15.3482L11.9778 16.3094L11.7325 17.5035H10.7184L9.79201 17.136L9.33569 16.032L9.56385 14.9155L9.88801 13.5534Z" fill="#D2C281"/>
<path fill-rule="evenodd" clip-rule="evenodd" d="M11.8496 13.6019C11.8747 13.6097 11.9009 13.6137 11.9272 13.6141C11.8981 13.6384 11.8373 13.6917 11.8616 13.8301C11.8859 13.9685 11.9635 14.1432 11.8981 14.2499C11.9503 14.307 11.9893 14.375 12.0121 14.4489C12.0534 14.568 12.0656 14.6771 12.3349 14.6942C12.296 14.7181 12.2602 14.7467 12.2281 14.7792C12.2281 14.7792 12.415 14.9417 12.5097 15.0921C12.6067 15.088 12.864 15.008 12.864 15.008L12.9174 15.0445L13.0315 14.9965C13.0315 14.9965 12.9248 14.9552 13.0024 14.6955C13.0752 14.4673 13.1408 14.4795 13.1464 14.4625C13.152 14.4456 13.1998 14.2053 13.1998 14.1081C13.2361 13.9821 13.2653 13.5985 13.2653 13.5985L13.1877 12.7515L12.7509 12.4869L12.3957 12.144L12.0606 12.775L11.84 12.995L11.823 13.5411L11.8496 13.6019Z" fill="#E2C270"/>
<path fill-rule="evenodd" clip-rule="evenodd" d="M12.9005 12.8933C12.9005 12.8933 12.9781 13.1141 13.0074 13.284C13.0177 13.251 13.0234 13.2167 13.0243 13.1821C13.0243 13.1821 13.085 13.5171 13.097 13.6555C13.1213 13.6505 13.145 13.6433 13.1504 13.6675C13.1558 13.6917 13.2112 13.9613 13.1984 14.1117C13.2995 13.9449 13.4393 13.8051 13.6061 13.704C13.7032 13.6432 13.8173 13.5777 13.9363 13.5728C14.1232 13.568 14.259 13.6918 14.4824 13.6918C15.0211 13.6918 15.5091 13.2961 15.8683 13.1749C16.1328 13.0849 16.361 13.0195 16.5211 12.8737C16.5989 12.8083 16.7373 12.6627 16.8634 12.4465C17.0309 12.1585 17.2056 11.9078 17.3805 11.8763C17.3014 11.8908 17.2209 11.8965 17.1405 11.8933C17.1405 11.8933 17.1939 11.8398 17.2845 11.767C17.375 11.6942 17.4835 11.6045 17.6387 11.6045C17.9155 11.6045 18.0538 11.6456 18.2091 11.6456C18.3645 11.6408 18.4542 11.6045 18.4542 11.6045C18.4542 11.6045 18.617 11.7185 18.9834 11.7185C19.3499 11.7233 19.595 11.7549 19.7869 11.772C19.9787 11.7891 20.6218 11.7185 20.8062 11.724C20.9265 11.7286 21.0446 11.7575 21.1534 11.8089L20.5587 10.0809L18.4224 8.21375L17.1506 9.11423L15.1941 11.0705L13.301 11.772L12.9053 12.2161V12.8933H12.9005Z" fill="#CCB360"/>
<path fill-rule="evenodd" clip-rule="evenodd" d="M17.1482 11.9029C17.1482 11.9029 17.2016 11.8496 17.2912 11.7768C17.3808 11.704 17.4904 11.6141 17.6456 11.6141C17.9222 11.6141 18.0606 11.6554 18.216 11.6554C18.3714 11.6506 18.4611 11.6141 18.4611 11.6141C18.4611 11.6141 18.624 11.728 18.9902 11.728C19.3568 11.7328 19.6019 11.7643 19.7938 11.7813C19.9856 11.7982 20.6286 11.728 20.8131 11.7333C20.9334 11.7378 21.0514 11.7667 21.1602 11.8182L20.8907 11.039L20.5778 10.4445L19.6845 9.46624C19.6845 9.46624 18.6125 8.8352 18.6043 8.8304C18.5995 8.8256 18.233 8.72849 18.233 8.72849L17.2621 9.31584L16.3811 11.595L16.3642 12.075L16.9344 12.3445C17.0776 12.1045 17.2355 11.9125 17.3835 11.8882C17.2499 11.9027 17.148 11.9027 17.148 11.9027L17.1482 11.9029Z" fill="#D5B457"/>
<path fill-rule="evenodd" clip-rule="evenodd" d="M17.136 12.0656C17.051 12.0704 16.9808 12.0534 16.9613 11.9928C16.8885 11.7889 16.8302 11.7598 16.7693 11.7598C16.7083 11.7598 16.6261 11.8909 16.5773 11.9029C16.5285 11.9149 16.4705 11.7525 16.4705 11.7525L16.4171 11.7281C16.4171 11.7281 16.104 11.932 15.8832 12.1723C15.6624 12.4126 15.3006 12.8205 15.1381 12.8931C14.9755 12.9657 14.4171 12.9902 14.2261 13.0315C14.035 13.0728 13.8232 13.2112 13.7941 13.2427C13.7649 13.2742 13.8792 13.3081 13.8961 13.3397C13.9131 13.3688 13.7091 13.3566 13.6921 13.3877C13.6801 13.412 13.7401 13.5502 13.7699 13.6206C13.822 13.5947 13.8791 13.5806 13.9373 13.5793C14.1241 13.5745 14.2601 13.6984 14.4833 13.6984C15.0222 13.6984 15.5101 13.3027 15.8693 13.1813C16.1339 13.0915 16.3621 13.0259 16.5222 12.8803C16.5998 12.8149 16.7382 12.6691 16.8645 12.4531C16.9566 12.3051 17.0465 12.1667 17.1365 12.0648L17.136 12.0656Z" fill="#D2B257"/>
<path fill-rule="evenodd" clip-rule="evenodd" d="M9.40801 24.0778C9.40801 24.0778 9.36001 23.8981 8.91521 23.4346C8.78897 23.3035 8.71137 23.1946 8.62641 23.1167C8.41521 22.9175 8.29137 22.8642 8.14097 22.7501C7.81089 22.505 7.45168 22.505 7.17504 22.204C6.8984 21.9031 6.576 21.328 6.352 20.7403C6.1312 20.153 6.0704 19.9661 6.0704 19.9491C6.0704 19.9322 6.1312 19.8181 6.2088 19.8351C6.2864 19.852 6.2864 20.0024 6.30592 20.0389C6.34459 20.0984 6.38844 20.1544 6.43696 20.2063C6.55104 20.3375 6.7136 20.4943 6.79616 20.7282C6.7792 20.5291 6.7112 20.3083 6.7112 20.3083C6.7112 20.3083 7.1384 20.5778 7.5024 20.8592C7.86897 21.1408 8.01937 21.2379 8.12641 21.4175C8.23345 21.597 8.48561 22.0704 8.60641 22.2088C8.72721 22.3472 10.3824 22.869 10.3824 22.869L11.1698 23.456L11.5606 24.3128L11.2547 24.7928L10.6674 24.9191L9.71345 24.4919L9.40801 24.0776V24.0778Z" fill="#D2B159"/>
<path fill-rule="evenodd" clip-rule="evenodd" d="M7.28879 21.1263C7.28879 21.1263 7.48783 21.4442 7.97327 21.7451C8.41023 22.0098 9.10191 22.2501 9.71855 22.3933C10.0728 22.4783 10.4272 22.5437 10.7451 22.5487C11.6019 22.5607 12.1917 22.3157 12.9224 22.2355C13.3181 22.1943 13.8035 22.1627 14.3083 22.0435C14.9563 21.8882 15.3398 21.7133 15.8617 21.4675C16.2403 21.2928 16.5875 21.1618 16.869 20.9943C17.2646 20.7613 17.5534 20.5016 17.8885 20.424C17.8472 20.5381 17.8035 20.7419 17.4734 20.9531C17.6481 20.9482 17.8885 20.9362 17.8885 20.9362C17.8885 20.9362 17.6555 21.0744 17.2453 21.3851C16.9928 21.5771 16.6579 21.9021 16.3157 22.1181C16.0947 22.2565 15.8544 22.3581 15.6966 22.441C15.3126 22.6522 15.1577 22.7589 14.9054 23.017C14.9952 23.0122 15.0025 23.017 15.0025 23.017C15.0025 23.017 14.6845 23.0583 14.4565 23.1795C14.4085 23.1795 14.3253 23.1626 14.1797 23.2039C14.0656 23.2402 13.915 23.3229 13.7598 23.3664C13.5389 23.432 13.4662 23.4029 13.4662 23.4029L13.5025 23.4757C13.5025 23.4757 13.2145 23.4707 13.1185 23.4805C13.1355 23.4853 13.1307 23.4927 13.1307 23.4927C13.1138 23.4955 13.0976 23.5012 13.0827 23.5096C13.0365 23.5395 12.9857 23.5617 12.9323 23.575C12.9032 23.5798 12.8789 23.5798 12.8424 23.5872C12.8545 23.6163 12.9493 23.7792 12.9929 23.8752C12.9566 23.8995 12.4104 24.3122 12.4104 24.3122C12.4273 24.3388 12.4412 24.3673 12.4517 24.3971C12.4686 24.4504 12.476 24.5282 12.4929 24.5645C12.5341 24.6373 12.5584 24.6494 12.5584 24.6494C12.5584 24.6494 12.4929 24.6616 12.3787 24.6907C12.2817 24.7151 12.1627 24.7562 11.9947 24.7805C11.9432 24.7872 11.8913 24.7913 11.8393 24.7927C11.8637 24.8461 11.9704 25.0499 11.7737 25.2853C11.5771 25.5206 11.5165 25.5549 11.4558 25.7053C11.4253 25.6822 11.3928 25.6619 11.3587 25.6445C11.2933 25.6154 11.2033 25.5718 11.1718 25.5134C11.1535 25.5913 11.1291 25.6675 11.099 25.7416C11.0384 25.9042 10.9486 26.0645 10.9317 26.1858C10.8661 26.113 10.7448 25.9698 10.5773 25.9989C10.4097 26.028 10.2763 26.2562 10.2472 26.3218C10.2472 26.2805 10.2181 26.249 10.2109 26.2974C10.2059 26.3509 10.1137 26.909 9.59919 27.3605C9.59439 27.2464 9.59439 26.9939 9.58223 26.9115C9.53423 26.9595 9.47551 27.0304 9.12591 27.181C8.78367 27.3314 8.83791 27.4819 8.83791 27.4819C8.83791 27.4819 8.80879 27.2419 8.99327 26.9891C9.18015 26.7368 9.29423 26.6178 9.29423 26.5984C9.29121 26.5787 9.28279 26.5602 9.26991 26.545C9.24559 26.5207 9.19711 26.4915 9.19711 26.4722C9.22623 26.4602 9.51503 26.3218 9.49807 26.0352C9.48111 25.7781 9.37199 25.6445 9.29423 25.5499C9.28223 25.5378 9.40847 25.448 9.39135 25.4189C9.37919 25.4019 9.22399 25.2877 9.20447 25.2269C9.20906 25.1906 9.2172 25.1549 9.22879 25.1202C9.24575 25.0667 9.25791 25.0303 9.25311 24.9939C9.24095 24.9333 9.17535 24.7658 9.15599 24.7488C9.17295 24.7536 9.29423 24.7488 9.29423 24.7488C9.29423 24.7488 9.19727 24.5935 9.18015 24.5207C9.16303 24.4479 9.12671 24.256 9.10735 24.2197C9.14863 24.2245 9.25055 24.2317 9.25055 24.2197C9.25551 24.1832 9.16079 24.1226 9.20255 24.0757C9.23167 24.0805 9.28751 24.1048 9.34079 24.1728C9.31167 24.0951 9.26319 23.9447 9.16111 23.884C9.20911 23.8671 9.37231 23.8232 9.51551 23.9082C9.65871 23.9931 9.70751 24.112 9.70751 24.112C9.70751 24.112 9.79247 24.1776 9.92367 24.2747C10.0741 24.3936 10.2657 24.5627 10.5717 24.6824C10.6373 24.7189 10.8046 24.7189 10.9261 24.6946C10.9789 24.682 11.0296 24.6615 11.0765 24.6339C11.0934 24.624 11.1113 24.6158 11.1299 24.6096C11.1038 24.5572 11.0738 24.5069 11.0401 24.459C11.0814 24.459 11.1299 24.464 11.1299 24.464C11.1299 24.464 11.159 24.3984 11.028 24.272C11.0571 24.2429 11.0936 24.224 11.0936 24.1749C11.0523 24.1701 10.9795 24.1094 10.9625 24.0851C10.9867 24.0682 11.0232 24.0123 11.0645 23.9954C11.028 23.9662 10.9382 23.8448 10.8969 23.8328C10.9364 23.8182 10.9745 23.8003 11.011 23.7794C11.011 23.7794 10.8072 23.7259 10.7416 23.6823C10.676 23.6343 10.579 23.5512 10.5208 23.5269C10.46 23.5026 10.3533 23.4906 10.3096 23.4419C10.3507 23.4541 10.4163 23.4419 10.4649 23.4419C10.5013 23.4419 10.5184 23.4467 10.5304 23.4467C10.5256 23.4298 10.5256 23.3933 10.6203 23.3813C10.6659 23.3744 10.7101 23.3605 10.7513 23.34C10.7513 23.34 10.6614 23.3352 10.5593 23.2381C10.4573 23.141 10.3725 23.0634 10.3142 23.0512C10.2536 23.039 10.1395 23.0925 10.0691 23.0875C9.97199 23.0755 9.93071 23.0269 9.93071 23.0269C9.93071 23.0269 9.60799 23.056 8.89199 22.6192C8.27295 22.2405 8.00351 21.9056 8.00351 21.9056C7.94558 21.8846 7.88958 21.8586 7.83615 21.8279C7.60319 21.7066 7.28031 21.4541 7.29007 21.1239L7.28879 21.1263Z" fill="#C2A44D"/>
<path fill-rule="evenodd" clip-rule="evenodd" d="M16.2184 6.55824C16.2746 6.57649 16.3245 6.61014 16.3624 6.65536C16.4765 6.7864 16.5493 7.03392 16.2896 7.29856C16.3915 7.33488 16.4336 7.34656 16.5226 7.33488C16.4328 7.44176 16.229 7.66992 16.2168 7.86896C16.2047 8.03152 16.3066 8.08016 16.3066 8.08016C16.3066 8.08016 16.1512 8.25968 16.144 8.56016C16.2174 8.47743 16.2977 8.4011 16.384 8.332C16.5637 8.1888 16.8112 8.02624 16.9787 7.92432C16.9765 7.96704 16.9822 8.00981 16.9957 8.0504C16.9957 8.0504 17.3087 7.79312 17.5717 7.90736C17.6906 7.9608 17.6371 8.12816 17.6371 8.12816C17.6371 8.12816 17.7999 8.06752 17.9139 8.1816C18.028 8.29568 18.1893 8.58992 18.272 8.704C18.3083 8.75744 18.4031 8.85936 18.5 9.01712C18.6325 9.23799 18.7431 9.47126 18.8303 9.7136C18.8351 9.58736 18.8666 9.39088 19.2259 9.51456C19.5851 9.6408 19.9928 9.90544 20.3351 10.4266C20.6773 10.9477 20.7621 11.536 20.9344 11.76C21.1091 11.976 21.2888 12.3352 21.301 12.4858C21.3131 12.6363 21.2475 13.1216 21.6067 14.4347C21.7087 14.027 21.864 13.1216 21.864 13.1216L21.949 12.323L22.0461 9.85216L19.4659 7.70864L17.449 6.24496L16.1359 6.3712L16.2183 6.55808L16.2184 6.55824Z" fill="#CAA13E"/>
<path fill-rule="evenodd" clip-rule="evenodd" d="M21.0121 10.2353C21.0121 10.2353 20.9757 9.99534 20.3689 9.58734C19.7621 9.18446 19.2888 9.18446 18.852 8.84222C18.5169 8.57278 18.1675 7.95374 17.94 7.7499C17.719 7.54846 17.6827 6.9659 17.6827 6.9659L18.4278 6.3419L19.536 4.74014L20.4728 3.70862L20.9217 4.33262L21.5457 5.06558L21.8928 6.53646L22.019 8.68942L21.011 10.2355L21.0121 10.2353Z" fill="#B59544"/>
<path fill-rule="evenodd" clip-rule="evenodd" d="M21.7622 12.816C21.7806 12.4895 21.7403 12.1624 21.6432 11.8501C21.4832 11.3525 21.1336 10.469 20.9712 10.1381C20.9056 9.77153 20.9542 9.74241 21.0246 9.70113C21.095 9.65985 21.3597 9.50913 21.5046 8.98033C21.6496 8.45153 22.0993 8.43425 22.0993 8.43425L22.376 8.23041L22.796 9.28129L23.1624 10.2304L23.2765 10.9562L23.3614 11.575L23.1624 12.8834L22.1795 13.7717L21.7621 12.816H21.7622Z" fill="#C89D3A"/>
<path fill-rule="evenodd" clip-rule="evenodd" d="M8.04626 27.3982V27.3713C8.06669 27.3586 8.08472 27.3423 8.09954 27.3233C8.1165 27.299 8.12882 27.2699 8.14082 27.2627C8.16514 27.2505 8.27922 27.2147 8.33986 27.2262C8.4005 27.2377 8.56082 27.3038 8.64578 27.299C8.8205 27.2942 9.02434 27.1606 9.34722 27.2214C9.83266 27.3112 9.94674 27.6413 10.2283 27.8282C10.4203 27.9594 10.6191 27.901 10.6482 27.901H10.7136C10.7258 27.901 10.8155 27.799 10.8642 27.804C10.9613 27.8088 10.9709 27.8889 11.0315 27.8938C11.1747 27.9107 11.4515 27.8209 11.5899 27.8574C11.631 27.8703 11.6683 27.8929 11.6987 27.9233C11.7291 27.9537 11.7518 27.991 11.7647 28.032C11.7938 28.1218 11.7695 28.2358 11.6991 28.3014C11.5487 28.4397 11.4055 28.5709 11.3763 28.6854C11.4134 28.7137 11.4489 28.7438 11.4829 28.7757C10.282 28.4697 9.12651 28.0071 8.04626 27.3997V27.3982Z" fill="#CEB052"/>
<path fill-rule="evenodd" clip-rule="evenodd" d="M20.9709 22.5487C20.9709 22.5487 21.3494 22.0439 21.4806 21.7938C21.6117 21.536 21.0656 18.272 21.0656 18.272L22.1627 14.6774L22.1334 13.5075C22.1334 13.5075 22.1869 12.4274 22.3131 11.9589C22.4637 12.2283 22.9322 12.5536 23.0341 12.7259C23.0821 12.3957 23.2451 11.6992 23.221 10.9565C23.3107 11.0947 23.5267 12.4856 23.5267 12.4856L23.7427 13.4224L24.0243 14.4176L24.3374 15.4686L24.5243 16.1944L24.631 16.3691L24.721 16.6749L24.8059 17.0051L25.051 17.7794L25.195 18.4152L25.3091 19.5682C25.3339 19.6565 25.3518 19.7465 25.3626 19.8376C25.3674 19.9639 25.3456 20.0367 25.3456 20.0586C25.3456 20.0805 25.3869 20.3352 25.3699 20.5271C25.3456 20.7191 25.3456 20.8693 25.195 21.0071C25.0445 21.1448 24.9499 21.9682 24.9499 21.9682L24.6805 21.7887C24.6805 21.7887 24.7339 21.5434 24.6077 21.3202C24.4814 21.097 24.2363 21.0507 24.0979 21.0872C23.9597 21.1163 23.683 21.1599 23.5931 21.2376C23.5082 21.3152 23.2995 21.5555 23.1077 21.6648C22.8677 21.8088 22.4766 21.8202 22.268 21.8687C22.0568 21.9167 21.8238 22.0607 21.5786 22.2279C21.3863 22.3524 21.1832 22.4595 20.9718 22.5479L20.9709 22.5487Z" fill="#CCA847"/>
<path fill-rule="evenodd" clip-rule="evenodd" d="M20.9709 27.852C20.9709 27.852 20.9869 27.8624 21.0178 27.8793C22.7422 27.0714 24.2872 25.9262 25.5618 24.5113C25.5478 24.0201 25.5298 23.5166 25.5099 23.3301C25.4688 22.9344 25.4979 22.5315 25.4858 22.2985C25.4736 22.0656 25.3426 21.1165 25.2819 20.8713C25.2163 20.6262 25.0899 20.5048 25.0707 20.5048C25.0538 20.5098 24.9517 20.9661 24.9517 21.0808C24.9517 21.1955 24.9274 21.4717 24.9274 21.5421C24.9104 21.5371 24.9032 21.4941 24.9032 21.4765C24.8789 21.5371 24.8498 21.644 24.8376 21.6561C24.8254 21.6683 24.8546 21.5542 24.8376 21.5299C24.8206 21.5056 24.7896 21.5177 24.7963 21.4571C24.7992 21.4211 24.8049 21.3855 24.8133 21.3504C24.8133 21.3504 24.7405 21.4571 24.6872 21.7289C24.6338 21.9984 24.6338 22.0057 24.6144 22.0299C24.5974 22.0592 24.5003 22.1561 24.4954 22.1926C24.4906 22.2581 24.5853 22.3237 24.5925 22.36C24.5973 22.4208 24.5075 22.7022 24.4784 22.84C24.4493 22.9777 24.4614 23.2477 24.4304 23.3861C24.4061 23.5123 24.3824 23.5851 24.2994 23.6384C24.36 23.6505 24.4182 23.6675 24.4182 23.6675C24.4182 23.6675 24.5032 24.0267 24.2872 24.3326C24.2096 24.4393 24.1902 24.488 24.1077 24.5851C23.945 24.7646 23.8187 24.9691 23.8066 25.1021C23.7982 25.0628 23.7925 25.023 23.7896 24.983C23.7896 24.983 23.5373 25.2768 23.4304 25.4443C23.2922 25.6603 23.1003 25.6481 23.0464 25.7016C22.9925 25.755 22.9808 25.852 22.9984 25.9297C22.9504 25.9417 22.8602 25.9589 22.7994 26.1457C22.7702 26.2427 22.6974 26.3377 22.5834 26.403C22.4693 26.4683 22.3309 26.488 22.2605 26.5049C22.3211 26.5219 22.3454 26.5219 22.3746 26.5413C22.3382 26.6019 22.1707 26.6966 21.9838 26.8181C21.797 26.9321 21.707 27.0995 21.661 27.2088C21.613 27.3107 21.5421 27.3763 21.428 27.3885C21.476 27.4176 21.547 27.4854 21.5834 27.5073C21.5299 27.5195 21.4394 27.5195 21.2776 27.6579C21.1077 27.7987 21.0494 27.84 20.9717 27.8521L20.9709 27.852Z" fill="#C39D3C"/>
<path fill-rule="evenodd" clip-rule="evenodd" d="M17.5936 28.9768C17.6865 28.9117 17.7872 28.8583 17.8933 28.8179C18.2718 28.6675 18.6723 28.6384 18.8301 28.5899C18.9806 28.5419 19.0995 28.4757 19.2864 28.4394C19.2814 28.4819 19.2773 28.5219 19.2728 28.5597C18.7218 28.7329 18.1608 28.8722 17.5928 28.9768H17.5936Z" fill="#D2BA6B"/>
<path fill-rule="evenodd" clip-rule="evenodd" d="M24.576 19.0195C24.576 19.0195 24.4984 19.4394 24.36 19.704C24.2216 19.9687 24.072 20.3351 24.072 20.3351C24.0729 20.2525 24.0826 20.1703 24.1011 20.0898C23.9264 20.1917 23.5016 20.437 23.3811 20.5461C23.267 20.648 23.0752 20.8277 23.0267 20.9127C23.1408 20.5778 23.2597 20.2768 23.2792 20.1384C23.1045 20.2647 22.2888 20.937 21.8641 21.3811L20.5413 22.4515C20.3886 22.5339 20.2314 22.6075 20.0704 22.672C19.8424 22.769 19.5729 22.8515 19.3739 22.9293C19.4273 22.7861 19.5121 22.6597 19.6312 22.5384C19.7574 22.4195 20.136 22.0093 20.1942 21.8184C20.2477 21.6194 20.2598 21.5005 20.1894 21.333C20.1238 21.3499 19.9734 21.3573 19.8715 21.3864C19.7696 21.4155 19.6603 21.5247 19.6603 21.5247C19.6603 21.5247 19.7379 21.0805 19.9054 20.6607C19.7792 20.6655 19.5632 20.7018 19.5632 20.7018C19.5632 20.7018 19.8641 20.197 20.3792 19.8451C20.2214 19.8787 20.0671 19.9266 19.9181 19.9882C19.6171 20.1144 19.287 20.3013 19.0419 20.4032C19.1801 20.2112 20.151 18.8256 20.7288 17.5343C21.3048 16.2455 21.52 15.9154 21.6462 15.2237C21.7117 14.8815 21.6942 14.3757 21.7117 13.9227C21.7286 13.4736 21.7845 13.0707 21.7481 12.8013C21.8985 12.9882 22.4617 13.5149 22.4811 14.6922C22.4981 15.8693 21.9424 17.4592 21.3525 18.3159C21.4965 18.3571 21.8696 18.4058 22.2529 17.7399C22.6363 17.0739 22.6317 16.888 22.7701 16.6112C22.787 16.7496 22.7821 16.7981 22.7821 16.7981C22.7821 16.7981 23.3405 16.121 23.6049 15.269C23.6584 15.6355 23.8161 15.9584 23.5685 16.6307C23.3477 17.2375 23.0589 17.3856 23.0589 17.3856C23.0589 17.3856 23.2021 17.3613 23.4131 17.2351C23.4496 17.3248 23.4424 17.4271 23.503 17.4632C23.5636 17.4994 23.6462 17.5603 23.6584 17.6186C23.7238 17.5215 23.8257 17.3976 23.8574 17.3055C23.8331 17.4975 23.8161 18.337 23.9054 18.7642C24.0924 18.7472 24.2841 18.7351 24.4152 18.3976C24.3254 18.7279 24.3254 18.9267 24.386 19.2083C24.4856 19.1405 24.5753 19.0191 24.5753 19.0191L24.576 19.0195Z" fill="#C0993A"/>
<path fill-rule="evenodd" clip-rule="evenodd" d="M18.2694 5.64078C18.2694 5.64078 18.0826 5.71838 17.7647 5.71838C17.488 5.71838 17.5656 5.61166 17.1336 5.61166C16.4687 5.61166 14.1458 5.99566 13.7379 5.99022C13.4733 5.98542 14.6311 6.1043 14.6311 6.1043L17.5899 6.14558L18.1845 6.09758L18.4054 5.64798L18.2694 5.64078Z" fill="#A88F33"/>
<path fill-rule="evenodd" clip-rule="evenodd" d="M10.5971 11.4248C10.5971 11.4248 10.2184 11.7136 10.0582 11.9346C9.89808 12.1555 9.81312 12.301 9.63104 12.4806C9.67378 12.4823 9.71649 12.4765 9.75728 12.4637C9.75728 12.4637 9.75728 12.5117 9.72816 12.5243C9.75333 12.5215 9.7788 12.5244 9.80272 12.5327C9.82664 12.541 9.8484 12.5545 9.8664 12.5723C9.81296 12.6015 9.66736 12.7472 9.78144 12.9195C9.8664 13.0506 10.0461 13.0626 10.0461 13.0626C10.0461 13.0626 10.0048 13.1816 10.1771 13.1695C10.5485 13.1525 10.9635 12.9898 11.1552 13.031C11.3472 13.079 11.4563 13.0966 11.5922 13.3322C11.7362 13.5651 11.8616 13.6016 11.8616 13.6016C11.8616 13.6016 11.9466 13.3854 11.9272 13.0627C11.9969 12.8888 12.0355 12.7039 12.0413 12.5166L11.915 11.5871L11.3642 10.8904L10.6506 11.2861L10.5971 11.4243V11.4248Z" fill="#E3C571"/>
<path fill-rule="evenodd" clip-rule="evenodd" d="M11.2742 11.2864C11.2742 11.2864 11.3277 11.4126 11.551 11.4246C11.5267 11.4781 11.5267 11.4854 11.5341 11.5266C11.5389 11.5678 11.5461 11.6285 11.5461 11.6285C11.5707 11.6166 11.5929 11.6003 11.6117 11.5805C11.6238 11.6339 11.5995 11.7187 11.6117 11.7795C11.6192 11.8165 11.6314 11.8524 11.648 11.8862C11.6515 11.8779 11.6556 11.8699 11.6602 11.8621C11.665 11.8499 11.7082 11.9931 11.8277 12.1021C11.8276 12.0853 11.8317 12.0688 11.8397 12.0541C11.8415 12.0845 11.8516 12.1139 11.8688 12.139C11.8598 12.1348 11.8517 12.129 11.8446 12.1221C11.8446 12.1221 11.8566 12.5061 11.9222 12.7046C11.9332 12.6918 11.9429 12.678 11.9514 12.6634C11.9514 12.6514 11.9466 12.7702 11.9344 12.8554C11.9174 12.9403 11.9296 13.0592 11.9296 13.0592C11.9734 13.0248 12.0214 12.9962 12.0726 12.9742C12.1454 12.945 12.2646 12.8552 12.3373 12.6562C12.3794 12.5434 12.4119 12.4273 12.4344 12.3091C12.4579 12.3543 12.4741 12.4029 12.4824 12.4531C12.4874 12.5138 12.6014 12.4822 12.6014 12.4822L12.6258 12.2176L12.7698 11.6181L12.9008 11.2467L13.5318 10.2638L14.672 9.38576L15.6672 9.61392L16.5069 8.47312L15.0603 7.60416L13.6914 7.74736L12.449 9.46816L11.4539 11.029L11.2742 11.2862V11.2864Z" fill="#D8B65B"/>
<path fill-rule="evenodd" clip-rule="evenodd" d="M18.4442 8.79614C18.4442 8.79614 18.3592 8.8131 18.1141 8.94014C17.869 9.06718 17.699 9.1075 17.6043 9.29438C17.5096 9.48126 17.5024 9.62942 17.5024 9.62942C17.5024 9.62942 17.6699 9.55662 17.767 9.5323C17.869 9.50814 17.983 9.51534 17.9709 9.55662C17.9592 9.58493 17.943 9.61114 17.9229 9.63422C17.9229 9.63422 18.1149 9.62942 18.1098 9.72414C18.1046 9.81886 18.0734 9.92318 18.0371 9.96926C18.0006 10.0173 17.8502 10.0883 17.8333 10.1441C17.792 10.2582 17.8502 10.263 17.8283 10.3552C17.8114 10.4451 17.7314 10.6198 17.4691 10.9256C17.1997 11.2315 17.0851 11.4475 17.0851 11.4475C17.0851 11.4475 16.9541 11.2024 16.8861 10.9912C16.8381 11.0153 16.5803 11.1585 16.5803 11.1585L15.9832 9.07854L15.9952 8.94014C15.9952 8.94014 16.0486 8.8747 16.0608 8.75326C15.971 8.72414 15.9589 8.69982 15.8398 8.5859C15.7208 8.47198 15.6238 8.33342 15.425 8.2387C15.3958 8.18526 15.3594 8.11262 15.2138 8.08334C15.0682 8.05406 14.9808 8.03006 14.9808 8.03006C14.9808 8.03006 15.0584 8.00078 15.0949 7.94014C15.005 7.9523 14.9323 7.98142 14.7357 7.97662C14.5366 7.97166 14.5147 7.96446 14.4056 7.98142C14.2965 7.99838 14.1656 8.04702 14.1168 7.8795C14.0634 7.83822 13.9493 7.8747 13.8522 8.01774C13.755 8.16078 13.7211 8.27502 13.5342 8.33086C13.5211 8.41324 13.4923 8.49232 13.4493 8.56382C13.3958 8.65374 13.3109 8.7435 13.1968 8.87694C13.0171 9.08814 13.0462 9.43518 12.7598 9.69982C12.471 9.9643 12.8078 8.9667 12.8078 8.9667L13.269 7.8627L14.5821 6.5787L16.621 6.44046L16.82 7.49646L17.8152 7.8387L18.4438 8.79742L18.4442 8.79614Z" fill="#D3AE4D"/>
<path fill-rule="evenodd" clip-rule="evenodd" d="M18.767 9.02914L17.9102 7.79378L17.3107 7.3325C17.3107 7.3325 16.8835 6.54626 16.8544 6.52194C16.8301 6.50498 16.4272 6.4613 16.1699 6.44434L16.2179 6.56322C16.2741 6.58146 16.324 6.61511 16.3619 6.66034C16.476 6.79138 16.5488 7.0389 16.2891 7.30354C16.391 7.33986 16.4331 7.35154 16.5221 7.33986C16.4323 7.44674 16.2285 7.6749 16.2163 7.87394C16.2042 8.0365 16.3061 8.08498 16.3061 8.08498C16.3061 8.08498 16.1507 8.26466 16.1435 8.56498C16.2169 8.48224 16.2972 8.40591 16.3835 8.33682C16.5632 8.19282 16.8107 8.0309 16.9782 7.92898C16.976 7.97175 16.9817 8.01457 16.9952 8.05522C16.9952 8.05522 17.3082 7.79794 17.5712 7.91202C17.6901 7.96546 17.6366 8.13298 17.6366 8.13298C17.6366 8.13298 17.7994 8.07234 17.9134 8.18642C18.0275 8.3005 18.1901 8.5941 18.2726 8.70834C18.309 8.76178 18.4037 8.8637 18.5006 9.0213C18.6331 9.24221 18.7437 9.47553 18.8309 9.71794C18.8357 9.62082 18.8552 9.48498 19.0229 9.48498L18.768 9.02866L18.767 9.02914Z" fill="#CAA13E"/>
<path fill-rule="evenodd" clip-rule="evenodd" d="M5.92243 12.5389C5.92243 12.5389 5.86179 12.3883 5.92243 12.0947C5.98307 11.8011 6.07779 11.6627 6.10931 11.2307C6.14083 10.7987 6.42243 10.2598 6.42243 10.2598L7.20147 9.90561L7.75251 10.056L7.91507 10.7939L7.21843 11.1779C7.21843 11.1779 7.18211 11.3405 6.98547 11.4715C6.78883 11.6026 6.51699 11.7045 6.45155 11.8381C6.41243 11.9199 6.38388 12.0064 6.36659 12.0954C6.36659 12.0954 6.16755 12.0541 6.04867 12.1851C5.92243 12.3187 5.92723 12.4376 5.92243 12.5395V12.5389Z" fill="#F4EFC8"/>
<path fill-rule="evenodd" clip-rule="evenodd" d="M7.49518 12.3422C7.49518 12.3422 7.42958 12.3835 7.3811 12.4862C7.3331 12.4086 7.21838 11.9474 7.21358 11.5323C7.20878 11.1173 7.18398 11.0144 7.27998 10.8714C7.37598 10.7283 7.75246 10.5776 7.69902 10.32C7.64558 10.0749 7.42222 9.97296 7.14798 10.0434C6.95598 10.0914 6.8131 10.4997 6.61406 10.7035C6.4635 10.8589 6.28398 10.8346 6.2355 10.9195C6.1699 11.0336 6.23054 11.1477 6.21118 11.2205C6.20622 11.2448 6.14558 11.3758 6.0363 11.5336C5.8155 11.8515 5.44174 12.3006 5.3931 12.7035C5.41006 12.4754 5.39806 12.4706 5.4587 12.2181L5.42222 12.1574L5.66222 11.371L5.81758 10.723L6.16478 9.63792L6.7763 8.5288L7.37102 7.86368L7.9899 7.90496L8.0627 8.83456L8.4171 10.5798L9.16222 11.4973L7.96798 12.301L7.4947 12.3422H7.49518Z" fill="#EBCC73"/>
<path fill-rule="evenodd" clip-rule="evenodd" d="M7.86655 12.672C7.86655 12.672 7.76462 12.6963 7.72814 12.6769C7.69166 12.6576 7.6555 12.6357 7.6675 12.6113C7.6795 12.587 7.7451 12.5459 7.7451 12.5264C7.74645 12.5087 7.74087 12.4913 7.72955 12.4777C7.71823 12.4641 7.70206 12.4554 7.68446 12.4536C7.62862 12.4464 7.61166 12.4827 7.61166 12.4827C7.61166 12.4827 7.55822 12.4416 7.5147 12.4347C7.54045 12.4316 7.56636 12.4299 7.5923 12.4297C7.52523 12.3994 7.45408 12.3789 7.3811 12.3691C7.44174 12.3328 7.56078 12.2259 7.63838 12.2259C7.71598 12.2259 7.76462 12.2139 7.75246 12.1726C7.7403 12.1313 7.67966 12.0707 7.61422 12.0464C7.63838 12.0173 7.6555 11.9736 7.59726 11.8544C7.53646 11.7355 7.56078 11.6553 7.5803 11.6264C7.59726 11.5899 7.6579 11.5245 7.68702 11.4832C7.71614 11.4419 7.74046 11.3861 7.78894 11.3569C7.81326 11.34 7.89087 11.3089 7.96863 11.2793C8.05359 11.2502 8.12399 11.2137 8.17247 11.2502C8.22591 11.2865 8.20159 11.3352 8.20159 11.3352C8.20159 11.3352 8.36911 11.2744 8.51951 11.3521C8.67007 11.4248 9.03663 11.471 9.03663 11.471L9.16799 11.7357L8.29903 12.4808L7.93983 12.6605L7.86703 12.6725L7.86655 12.672Z" fill="#E5C66B"/>
<path fill-rule="evenodd" clip-rule="evenodd" d="M9.07279 11.4539C9.07279 11.4539 8.80335 11.6336 8.74271 11.699C8.77903 11.704 8.83967 11.7283 8.81535 11.7646C8.78623 11.801 8.61151 11.9272 8.51439 12.0462C8.41247 12.1651 8.31535 12.3157 8.28143 12.3885C8.24511 12.4539 7.96831 12.6457 7.87375 12.6699C8.07279 12.6699 8.47327 12.4248 8.62367 12.4248C8.61887 12.4976 8.66495 12.5801 8.74991 12.5873C8.83487 12.5945 9.07999 12.6408 9.41007 12.4369C9.74015 12.2379 9.63103 12.0897 9.76927 11.9928C10.0339 11.8179 10.1406 11.6626 10.2862 11.5656C10.4318 11.4686 10.5072 11.4466 10.5072 11.4466C10.5072 11.4466 10.512 11.3738 10.5552 11.3811C10.567 11.3825 10.5782 11.387 10.5877 11.3943C10.5971 11.4016 10.6043 11.4113 10.6086 11.4224C10.6086 11.4224 10.8611 11.2427 11.1846 11.1942C11.1771 11.1909 11.171 11.1848 11.1677 11.1773C11.1677 11.1773 11.1918 11.1651 11.1968 11.153C11.1968 11.153 11.2137 11.1286 11.2259 11.1408C11.2381 11.153 11.255 11.2427 11.2793 11.2792C11.3328 11.2549 11.4347 11.0267 11.4347 11.0267L11.68 10.3253V9.68448L11.488 9.72096L10.048 10.3325L9.17407 11.2379L9.07215 11.4539H9.07279Z" fill="#E6BD62"/>
<path fill-rule="evenodd" clip-rule="evenodd" d="M13.2184 8.31073C13.2963 8.29183 13.3709 8.26153 13.44 8.22081C13.4109 8.29857 13.4109 8.38353 13.2846 8.56801C13.1584 8.75249 13.1536 8.77921 13.0517 8.97089C12.9497 9.16993 12.9376 9.45633 12.8405 9.58241C12.884 9.56126 12.9307 9.54737 12.9787 9.54129C12.9787 9.54129 12.8817 9.62625 12.8405 9.71601C12.7992 9.80577 12.7264 9.99265 12.5469 10.1069C12.3673 10.2211 12.139 10.2938 11.8939 10.5632C11.6486 10.8277 11.3963 11.1627 11.2699 11.2832C11.3355 11.1691 11.4253 10.941 11.4496 10.7906C11.4739 10.6402 11.4446 10.4603 11.4859 10.2614C11.5272 10.0626 11.5272 9.91921 11.7259 9.57201C11.9246 9.22481 12.2648 8.01857 12.2648 8.01857L12.9977 7.78561L13.2187 8.30993L13.2184 8.31073Z" fill="#B6933F"/>
<path fill-rule="evenodd" clip-rule="evenodd" d="M12.6893 7.86653C12.6893 7.86653 12.4685 8.18445 12.4078 8.46605C12.3472 8.74765 12.4029 8.72333 12.3665 8.86173C12.3448 8.94612 12.3448 9.03463 12.3665 9.11901C12.443 8.99582 12.5477 8.8926 12.672 8.81789C12.8808 8.69181 13.0507 8.60189 13.152 8.49517C13.2539 8.38109 13.3389 8.19421 13.5597 8.05101C13.4699 8.03885 13.3437 7.99757 13.3197 8.00301C13.4096 7.90109 13.6789 7.74573 13.9507 7.55885C14.2201 7.36685 14.2032 7.28941 14.6401 7.09774C14.4969 7.12206 14.4289 7.08558 14.3099 7.09774C14.3579 6.99582 14.5259 6.94718 14.6939 6.77982C14.8619 6.61246 14.5872 6.36478 14.5872 6.36478L13.3072 7.13902L12.6883 7.86717L12.6893 7.86653Z" fill="#C49937"/>
<path fill-rule="evenodd" clip-rule="evenodd" d="M9.216 7.28878L9.24512 7.05582L9.61168 6.46846L9.9952 5.43694V4.0267L9.96608 3.21118L10.0267 2.6771L10.0728 2.50734L10.1214 2.44174L10.4344 2.6043L10.8666 3.19166L10.9078 4.32526L10.4878 6.11406L9.2888 7.42238L9.216 7.28878Z" fill="#DFC068"/>
<path fill-rule="evenodd" clip-rule="evenodd" d="M10.1699 2.37616C10.1699 2.37616 9.97793 2.38112 9.93697 3.17968C9.89601 3.97824 9.87617 4.39808 9.84705 4.79376C9.81793 5.18944 9.75009 5.4296 9.71601 5.66272C9.68193 5.89584 9.66257 6.2136 9.55345 6.40784C9.50545 6.4976 9.40289 6.7792 9.16257 6.9904C8.89313 7.22336 8.49057 7.38608 8.42961 7.39824C8.32273 7.4224 7.78145 7.47584 7.56065 7.59728C7.48305 7.63856 7.34945 7.68704 7.20145 7.82544C6.90769 8.08992 6.51697 8.5632 6.23537 9.1336C5.80337 9.9856 5.37137 12.3909 5.37137 12.3909L5.46849 12.2283C5.46849 12.2283 5.48065 12.0123 5.69665 11.6336C5.90785 11.255 5.84721 10.8302 6.14081 10.1045C6.25489 9.82785 6.39809 9.46864 6.57281 9.16272C6.84961 8.66512 7.18449 8.23792 7.52193 8.00496C8.07281 7.6264 8.67969 7.54384 8.67969 7.54384L9.33265 7.11184C9.33265 7.11184 9.44673 6.89104 9.59729 6.63856C9.80833 6.28432 10.0773 5.88864 10.136 5.31344C10.2259 4.46144 10.0098 3.9032 10.0219 3.3984C10.0341 2.8936 10.0389 2.52224 10.141 2.43232C10.243 2.3424 10.1701 2.37648 10.1701 2.37648L10.1699 2.37616Z" fill="#A88F33"/>
<path fill-rule="evenodd" clip-rule="evenodd" d="M10.1699 6.18688C10.1699 6.18688 10.4579 5.47808 10.5898 4.84944C10.6141 4.7232 10.6626 4.59712 10.6747 4.4952C10.7354 3.90048 10.7523 3.65536 10.6747 3.33008C10.6141 3.09008 10.3811 2.87376 10.2597 2.70608C10.1408 2.5312 10.085 2.46608 10.1093 2.42928C10.1336 2.39248 10.2282 2.33232 10.3203 2.33952C10.4183 2.34237 10.5147 2.36512 10.6036 2.40638C10.6925 2.44763 10.772 2.50654 10.8375 2.57952C11.0243 2.79552 11.1723 3.52864 11.1723 3.52864L11.328 4.496L11.7237 5.7144L10.1703 6.18784L10.1699 6.18688Z" fill="#C99E3D"/>
<path fill-rule="evenodd" clip-rule="evenodd" d="M12.8761 5.4491C12.8761 5.4491 12.8227 5.47326 12.7257 5.4491C12.7299 5.48873 12.723 5.52872 12.7059 5.56469C12.6887 5.60065 12.662 5.63119 12.6286 5.65294C12.5267 5.61166 11.5726 5.69422 11.5726 5.69422C11.5726 5.69422 11.1285 5.61646 10.9901 5.0291C10.8931 4.63822 11.0629 4.0995 11.007 3.7451C10.9221 3.22318 10.8032 3.1211 10.791 2.9587C10.7789 2.7963 10.7667 2.75486 10.7667 2.65294C10.7133 2.64078 10.6817 2.62382 10.6285 2.62382C10.6163 2.57582 10.6405 2.5339 10.5872 2.44894C10.6163 2.4611 10.8153 2.48542 11.0483 2.70622C11.2403 2.8859 11.2403 2.95134 11.2693 2.98782C11.3056 3.02414 11.5993 3.27582 11.7256 3.5267C11.8518 3.77758 12.0969 4.57758 12.1528 4.70862C12.1697 4.76206 12.2062 4.8155 12.2968 4.93678C12.4376 5.11166 12.6438 5.40078 12.8768 5.44878L12.8761 5.4491Z" fill="#B58634"/>
<path fill-rule="evenodd" clip-rule="evenodd" d="M11.3035 3C11.4506 3.23752 11.5827 3.48397 11.699 3.73792C11.8422 4.06064 11.9272 4.32528 12.1069 4.54128C12.0098 4.25984 11.8374 3.7064 11.7355 3.50976C11.6214 3.30176 11.3885 3.07776 11.3035 3.00016V3Z" fill="#A88F33"/>
<path fill-rule="evenodd" clip-rule="evenodd" d="M9.65298 6.99039C9.65298 6.99039 9.40786 7.05103 8.95154 7.29135C8.80098 7.36895 8.65794 7.43439 8.51954 7.49519C8.16002 7.65775 7.77442 7.80799 7.4685 7.89087C7.49282 7.91999 7.50482 7.93199 7.50482 7.93199C7.50482 7.93199 7.50482 8.05103 7.57042 8.11887C7.5341 8.15535 7.0485 8.48543 7.19186 9.58975C7.28882 9.55343 7.4029 9.50479 7.41986 9.50479C7.44914 9.50975 7.45634 9.58975 7.49266 9.58975C7.52898 9.58975 7.64802 9.54175 7.77426 9.37855C7.76946 9.44415 7.69666 10.1043 8.08738 10.5485C8.16018 10.4635 8.34466 10.1819 8.34466 10.1819L8.34946 10.0922C8.34946 10.0922 8.36642 9.77903 8.4685 9.49263C8.57058 9.20623 8.76946 8.99503 8.76946 8.99503L9.80802 7.51199L9.65266 6.99023L9.65298 6.99039Z" fill="#E6C367"/>
<path fill-rule="evenodd" clip-rule="evenodd" d="M8.68208 9.16799C8.63453 9.20159 8.58215 9.22776 8.52672 9.24559C8.50976 9.18495 8.48544 8.97615 8.62864 8.77231C8.79616 8.52703 9.16256 8.20911 9.26448 7.95631C9.33008 7.79359 9.30096 7.38591 9.88352 6.86399C10.4661 6.34207 10.6941 6.16255 10.6941 6.16255L11.6358 5.68927L12.7936 6.14559L12.2184 8.39999L11.7718 9.45599L9.99584 9.12111L8.68192 9.16799H8.68208Z" fill="#DCBA5A"/>
<path fill-rule="evenodd" clip-rule="evenodd" d="M9.35999 8.55585L9.58095 8.27921V8.08257C9.58095 8.08257 9.82606 8.01697 10.0905 7.74753C10.355 7.47809 10.7216 6.96113 11.0445 6.99265C11.3673 7.02913 11.3989 7.69409 11.411 7.88113C11.4232 8.06817 11.4645 8.49265 11.5299 8.72097C11.6027 8.94913 10.7435 9.81313 10.7435 9.81313L10.16 10.2573L9.35999 8.55585Z" fill="#E9CE77"/>
<path fill-rule="evenodd" clip-rule="evenodd" d="M10.0437 10.8592C10.0437 10.8592 10.2234 10.5776 10.0917 10.517C10.1693 10.3422 10.3125 10.1578 10.3125 10.1578C10.3125 10.1578 10.4144 9.90544 10.7445 9.59472C11.0746 9.284 11.2786 9.0776 11.332 8.86896C11.3649 8.73298 11.3829 8.5938 11.3854 8.45392C11.4211 8.48307 11.4593 8.50904 11.4995 8.53152C11.5529 8.55584 11.8053 8.76448 11.7689 9.18448C11.7326 9.60448 11.5769 9.7792 11.5769 9.7792C11.5769 9.7792 11.4265 9.9296 11.3198 10.0074C11.2056 10.085 11.1645 10.1747 10.9726 10.1821C10.9923 10.1664 11.0145 10.1541 11.0382 10.1456C11.0382 10.1456 10.8392 10.1214 10.7323 10.2184C10.6254 10.3154 10.3982 10.6141 10.2842 10.704C10.1701 10.7768 10.0442 10.8594 10.0442 10.8594L10.0437 10.8592Z" fill="#CDAE50"/>
<path fill-rule="evenodd" clip-rule="evenodd" d="M18.1141 6.13824C17.8273 6.03373 17.526 5.97477 17.221 5.96352C16.7112 5.94656 15.9661 5.97568 15.2355 5.98048C14.4491 5.98528 13.7355 5.71104 12.7453 5.66256C12.5827 5.56544 12.1693 5.14064 10.8787 6.04112C10.9563 6.03632 11.8157 5.84208 12.1141 6.216C12.415 6.58736 12.3301 7.2184 12.289 7.3688C12.2112 7.70384 11.9587 8.19168 11.857 8.53392C11.7552 8.87616 11.7792 9.056 11.7064 9.296C11.6336 9.536 11.4734 9.6552 11.568 9.93184C11.6942 9.85424 11.76 9.85424 11.9709 9.38096C12.1818 8.90768 12.1384 8.57024 12.488 8.16976C12.8302 7.76688 13.4 7.21584 13.6166 7.07744C13.8333 6.93904 15.5534 6.04592 17.3546 6.89792C17.789 6.85184 18.1142 6.13808 18.1142 6.13808L18.1141 6.13824Z" fill="#D2A83E"/>
<path fill-rule="evenodd" clip-rule="evenodd" d="M11.6043 5.808C11.6025 5.78976 11.5985 5.77181 11.5923 5.75456C11.5755 5.71906 11.5534 5.68632 11.5267 5.65744C11.5267 5.65744 11.0995 5.57984 10.8835 5.604C10.5048 5.64528 10.1626 6.11376 10.0024 6.35408C9.84223 6.5944 9.64319 6.9656 9.42719 7.15744C9.42956 7.13875 9.42525 7.11982 9.41503 7.104C9.41503 7.104 9.42719 7.12096 9.40303 7.14528C9.37887 7.1696 9.37871 7.1816 9.39087 7.19328L9.42735 7.2296C9.43935 7.2296 9.77439 7.07904 10.2307 6.6536C10.7162 6.20944 11.0875 5.9816 11.2818 5.90352C11.3853 5.8595 11.4936 5.82745 11.6045 5.808H11.6043Z" fill="#C29637"/>
<path fill-rule="evenodd" clip-rule="evenodd" d="M19.8909 3.98303C19.8909 3.98303 19.8131 4.07999 19.716 4.18687C19.5 4.41503 19.2184 4.67215 18.9781 4.93679C18.7501 5.18927 18.4928 5.38591 18.2038 5.71599C17.9149 6.04607 17.5798 6.41247 17.495 6.51935C17.4174 6.62623 17.3568 6.80095 17.3568 6.89071C17.3155 6.86159 17.267 6.83007 17.267 6.83007C17.2874 6.86818 17.3118 6.904 17.3398 6.93695C17.4005 7.02191 17.495 7.12895 17.5437 7.19423C17.6033 7.27733 17.6462 7.37131 17.6697 7.47087C17.6989 7.47567 17.8858 7.51215 18.1189 7.12863C18.352 6.74511 18.6576 6.32527 18.6576 6.32527L19.143 5.60431L19.4489 4.99279L19.8329 4.30831L19.8913 3.98303H19.8909Z" fill="#AC8132"/>
<path fill-rule="evenodd" clip-rule="evenodd" d="M20.3885 3.4928C20.3885 3.4928 20.0947 3.7328 19.9807 3.8768C19.8666 4.0208 19.5966 4.39872 19.5966 4.39872L19.6938 4.38656L20.1866 3.94976L20.3786 3.60752L20.3883 3.49344L20.3885 3.4928Z" fill="#A88F33"/>
<path fill-rule="evenodd" clip-rule="evenodd" d="M20.2986 22.7816C20.2986 22.7816 20.2938 22.5826 20.4054 22.4637C20.5195 22.3446 20.8083 22.1699 21.0899 21.5146C21.3715 20.8592 21.4029 20.7112 21.4029 20.7112C21.4029 20.7112 20.8981 21.1432 20.5869 21.2451C20.6597 21.0946 20.701 20.9878 20.7374 20.9101C20.6962 20.8738 20.5214 20.8325 20.5045 20.8131C20.6014 20.716 20.6549 20.4781 20.8515 20.3203C21.104 20.1283 21.5651 19.7984 21.9235 19.5043C22.2819 19.2103 22.9866 18.5262 23.0765 18.3272C23.1299 18.4048 23.1419 18.4533 23.1419 18.4533C23.1419 18.4533 22.7877 18.9146 22.6032 19.2082C22.4405 19.4607 22.4526 19.6038 22.4526 19.6038L22.7877 19.4598C22.7877 19.4598 22.8846 19.819 22.4454 20.3653C22.6374 20.2925 22.7149 20.3362 22.824 20.2754C22.6443 20.3896 22.3968 20.545 22.1638 20.972C21.9357 21.3992 21.625 21.8968 21.1008 22.2074C20.591 22.535 20.2973 22.7802 20.2973 22.7802L20.2986 22.7816Z" fill="#A67A2E"/>
<path fill-rule="evenodd" clip-rule="evenodd" d="M18.983 6.39088C18.983 6.39088 18.784 6.80576 18.7549 7.12864C18.7501 7.2064 18.7306 7.26704 18.7306 7.3568C18.7258 7.6456 18.7475 7.96848 18.6826 8.11888C18.6582 8.05824 18.6461 8.01696 18.6218 7.9928C18.5854 8.09472 18.5198 8.41264 18.4664 8.53152C18.4422 8.45392 18.3888 8.18448 18.3938 7.86656C18.3987 7.54864 18.4058 7.48784 18.4058 7.4224C18.3938 7.51936 18.3282 7.65056 18.3038 7.72816C18.2675 7.66272 18.2262 7.57776 18.1776 7.50736C18.1485 7.55536 18.1122 7.62624 18.0806 7.66272C18.0757 7.6336 18.0637 7.55584 18.0563 7.44672C18.0515 7.32048 18.0442 7.15792 18.0515 7.12384C18.0635 7.0584 18.1656 6.80112 18.3816 6.5656C18.6389 6.284 18.9035 5.74288 18.9811 5.57536C19.0587 5.40784 19.3888 4.71136 19.3888 4.71136H19.6413L19.2747 5.54624C19.2747 5.54624 19.0539 6.00256 18.9398 6.17024C18.8258 6.33792 18.5854 6.8184 18.4786 7.00528C18.5562 6.90336 18.6218 6.84992 18.6995 6.7528C18.7747 6.6848 18.9834 6.3912 18.9834 6.3912L18.983 6.39088Z" fill="#8C6228"/>
<path fill-rule="evenodd" clip-rule="evenodd" d="M20.3933 3.46112C20.352 3.58805 20.2869 3.70591 20.2013 3.80832C20.0507 3.988 19.7278 4.22816 19.5702 4.41984C19.4262 4.60672 19.1382 5.11648 19.2691 5.7208C19.3171 5.58976 19.4075 5.33008 19.6478 5.03632C19.8882 4.74256 20.1454 4.40528 20.2718 4.1432C20.3979 3.87856 20.4149 3.66992 20.4149 3.66992L20.4629 3.60928L20.4338 3.47088L20.3925 3.46112H20.3933Z" fill="#CBA94C"/>
<path fill-rule="evenodd" clip-rule="evenodd" d="M25.3083 19.5607C25.3083 19.5607 25.2112 19.2962 25.1821 19.0559C25.1529 18.8155 25.2301 18.7679 25.1408 18.4928C25.0874 18.3253 24.9904 18.3488 24.9661 18.3253C24.9417 18.3018 24.9248 18.0487 24.9296 17.9103C24.9344 17.7719 24.9248 17.5923 24.9005 17.5146C24.8641 17.4855 24.8398 17.4611 24.7864 17.2816C24.7257 17.1019 24.6966 17.0122 24.6675 16.9589C24.6384 16.9056 24.5533 16.857 24.5533 16.8035C24.5533 16.6967 24.6504 16.641 24.6504 16.6115C24.6456 16.5509 24.5728 16.5995 24.5533 16.5824C24.5291 16.5533 24.6141 16.3786 24.5825 16.3543C24.5704 16.3423 24.4854 16.4442 24.4635 16.4151C24.4392 16.3858 24.4101 16.097 24.3664 15.9053C24.3253 15.7184 24.2814 15.5826 24.2766 15.5267C24.2718 15.4733 23.9416 14.5315 23.8616 14.3034C23.7971 14.1106 23.7429 13.9145 23.699 13.716C23.6747 13.6019 23.6577 13.3688 23.6456 13.3931C23.6334 13.4175 23.6408 13.5363 23.6213 13.5315C23.6043 13.5266 23.5437 13.1117 23.5243 13.0461C23.5073 12.9805 23.4053 12.7581 23.3803 12.5971C23.356 12.4344 23.3027 12.0096 23.2662 11.7208C23.2297 11.432 23.2128 11.3131 23.2128 11.2408C23.2188 11.0639 23.209 10.8869 23.1837 10.7117C23.1357 10.4058 23.0397 10.0344 22.9555 9.81858C22.7929 9.41074 22.3608 8.36706 22.2835 8.10738C22.2835 8.04178 22.3685 8.07826 22.3685 8.07826C22.3685 8.07826 22.5795 8.60738 22.7349 9.01506C22.8854 9.4229 23.0286 9.7821 23.0651 9.81858C23.0942 9.8549 23.3224 10.2554 23.4243 10.9107C23.5262 11.5661 23.5625 12.1704 23.6233 12.5733C23.6525 12.7653 23.6768 12.969 23.7374 13.1728C23.8029 13.3938 23.9048 13.6219 24.0384 13.9714C24.1525 14.2651 24.2374 14.5103 24.2835 14.7215C24.3369 14.9909 24.3369 15.1947 24.3685 15.3283C24.3977 15.4424 24.4413 15.6704 24.5433 16.0003C24.6454 16.3303 24.7957 16.7552 24.8976 17.0197C25.0968 17.5488 25.1856 17.9906 25.2157 18.2261C25.2422 18.4688 25.3321 19.3087 25.3078 19.561L25.3083 19.5607Z" fill="#A88F33"/>
<path fill-rule="evenodd" clip-rule="evenodd" d="M20.4054 3.43202L20.3933 3.46114C20.3933 3.46114 20.4296 3.4733 20.4224 3.52194C20.4229 3.58849 20.4188 3.65499 20.4102 3.72098C20.3982 3.80594 20.3739 3.87138 20.3691 3.92482C20.3691 4.0389 20.3861 4.16994 20.2251 4.49522C20.1771 4.58498 20.1475 4.66258 20.1232 4.71602C20.0625 4.84706 20.0504 4.86658 19.9969 4.92722C20.0819 4.87922 20.3878 4.68722 20.543 4.71602C20.4363 4.77666 20.2736 4.8957 20.1717 5.05106C20.196 5.05586 20.2979 5.07538 20.4597 5.05106C20.7291 5.00978 21.0301 4.91266 21.2945 4.93202C21.5835 4.94898 21.4694 4.58498 21.4694 4.58498L21.136 3.85202L20.5049 3.40802L20.4054 3.43218V3.43202Z" fill="#BE9C44"/>
<path fill-rule="evenodd" clip-rule="evenodd" d="M22.051 8.92239C22.051 8.92239 21.7694 8.64079 21.6554 7.67439C21.5413 6.70351 21.5656 5.27439 21.5656 5.27439L21.3374 4.71615C21.3374 4.71615 21.2894 4.34479 21.1699 4.20655C21.0504 4.06831 20.8157 3.83519 20.7088 3.72111C20.6019 3.60703 20.4806 3.45167 20.4078 3.42735C20.4442 3.36671 20.6069 3.02447 21.2306 3.01967C21.8542 3.01487 22.0466 3.36191 22.1117 3.48815C22.1768 3.61439 22.4709 4.16015 22.58 5.20015C22.6819 6.23887 22.6869 6.31663 22.6699 6.67583C22.6578 6.87487 22.5922 7.33599 22.4779 7.82863C22.3736 8.24623 22.2595 8.71231 22.0507 8.92335L22.051 8.92239Z" fill="#A17C34"/>
<path fill-rule="evenodd" clip-rule="evenodd" d="M21.168 9.75011C21.2618 9.75688 21.3556 9.73572 21.4374 9.68931C21.5272 9.68451 21.8525 9.72579 22.1024 9.40787C22.1194 9.48051 22.1632 9.67731 22.049 9.85203C22.1098 9.79123 22.1995 9.76707 22.2117 9.75011C22.2165 9.83987 22.3014 10.1165 21.9422 10.7888C22.0392 10.6821 22.1533 10.6869 22.2552 10.6747C22.2602 10.801 22.328 11.2256 22.1485 11.4539C22.0296 11.6093 21.8354 11.5607 21.8354 11.5607C21.8382 11.5268 21.8382 11.4927 21.8354 11.4587C21.8306 11.3931 21.8062 11.3277 21.8234 11.284C21.7295 11.2412 21.644 11.1819 21.5709 11.1091C21.3597 10.9101 21.0854 10.5704 21.0661 10.3179C21.0418 10.0363 21.2942 9.97571 21.2942 9.97571C21.2731 9.95679 21.255 9.93465 21.2408 9.91011C21.2286 9.86899 21.2165 9.80339 21.168 9.75011Z" fill="#8C6228"/>
<path fill-rule="evenodd" clip-rule="evenodd" d="M19.296 6.69665C19.296 6.69665 19.2839 6.67969 19.2184 6.75729C19.2306 6.67969 19.2427 6.60673 19.2475 6.53633C19.2785 6.47116 19.3186 6.41071 19.3666 6.35681C19.3301 6.42945 19.3058 6.49505 19.3058 6.49505C19.3058 6.49505 19.3957 6.32753 19.5267 6.22561C19.6165 6.15281 19.7306 6.11889 19.7791 6.05089C19.8325 5.97809 19.8203 5.96593 19.8325 5.95377C19.8325 5.95377 19.9515 5.87617 20.1336 5.64785C20.1578 5.61873 20.1943 5.58721 20.2186 5.55809C20.2597 5.54113 20.3568 5.49745 20.4709 5.43905C20.5899 5.37361 20.7234 5.28385 20.8059 5.24705C20.9685 5.17425 21.141 5.18161 21.221 5.06737C21.2816 5.05041 21.347 4.86833 21.335 4.71313C21.4248 4.74945 21.8859 5.03585 22.0438 5.66209C22.1579 6.10625 21.9539 6.79073 21.869 7.12097C21.784 7.45121 21.772 7.69617 21.653 7.84657C21.5024 8.04577 21.0171 8.32657 20.8981 8.46561C20.7962 8.57969 20.4904 8.86849 20.5024 9.07713C20.5146 9.23249 20.7062 9.31713 20.7477 9.34657C20.7891 9.37601 20.7888 9.41217 20.8666 9.39457C20.9443 9.37697 20.9733 9.34113 21.005 9.34113C21.0413 9.34593 21.0413 9.35329 21.0582 9.35329C21.0705 9.35293 21.0828 9.35126 21.0947 9.34833C21.0947 9.34833 21.0826 9.56929 20.5656 9.63633C20.5291 9.64129 20.4928 9.65329 20.4466 9.66065C20.5074 9.63153 20.5437 9.63153 20.6093 9.54177C20.5365 9.52961 20.3277 9.51745 20.2743 9.50049C20.2912 9.47137 20.347 9.39361 20.3931 9.35729C20.4344 9.32097 20.3883 9.30929 20.352 9.32817C20.2895 9.37072 20.2295 9.41688 20.1723 9.46641C20.1117 9.51985 20.0583 9.59265 19.9611 9.65841C19.932 9.56129 19.9368 9.37681 20.0511 9.24337C20.0218 9.24817 19.9659 9.33313 19.9127 9.31617C19.903 9.22764 19.9088 9.13811 19.9296 9.05153C19.9587 8.94225 20.1165 8.75057 20.1165 8.75057L20.8786 7.38881L21.0411 6.35729L19.296 6.69633V6.69665Z" fill="#92723A"/>
<path fill-rule="evenodd" clip-rule="evenodd" d="M19.2549 6.7549C19.2549 6.7549 19.2136 6.78402 19.2962 6.83986C19.284 6.85682 19.2549 6.91746 19.2184 6.95874C19.1773 7.00674 19.1334 7.0365 19.1165 7.07778C19.0802 7.16274 19.051 7.22098 19.051 7.25746C19.051 7.29394 19.0389 7.5269 18.937 7.6773C18.9005 7.73074 18.8592 7.8205 18.8301 7.88114C18.7694 7.98786 18.716 8.07314 18.7038 8.12114C18.6797 8.2061 18.6627 8.43906 18.6627 8.43906C18.6627 8.43906 18.7162 8.37346 18.7355 8.3493C18.7062 8.40994 18.6747 8.47538 18.6286 8.52402C18.6578 8.4997 18.7427 8.43906 18.8859 8.31282C19.085 8.14546 19.3957 7.86386 19.7744 7.64082C19.6602 7.6821 19.5632 7.6821 19.4856 7.69426C19.5462 7.63362 20.0923 6.99282 20.3787 6.93218C20.3961 6.91013 20.4048 6.88245 20.403 6.85442L20.1578 6.83026L19.6602 6.93698L19.5875 6.55298L19.2549 6.75442V6.7549Z" fill="#B18E3E"/>
<path fill-rule="evenodd" clip-rule="evenodd" d="M20.0462 8.93937C20.0462 8.93937 19.9806 9.00481 19.92 9.16753C19.8733 9.11878 19.8333 9.06407 19.801 9.00481C19.7112 8.85441 19.573 8.66257 19.2501 8.77185C19.2453 8.66993 19.2379 8.61649 19.2501 8.54369C19.3035 8.53169 19.4661 8.40065 19.6286 8.20881C19.7429 8.07777 19.8496 7.92721 19.9224 7.73553C19.9704 7.69905 20.0534 7.63841 20.1624 7.56801C20.3178 7.46129 20.5046 7.31553 20.5338 7.15297C20.461 7.18209 20.3056 7.25489 20.0725 7.24289C20.1624 7.20161 20.3006 7.15793 20.2837 6.97825C20.3202 6.95393 20.3493 6.93697 20.3493 6.93697C20.3219 6.92785 20.2931 6.92373 20.2643 6.92481C20.2594 6.90785 20.2522 6.88369 20.2109 6.89569C20.1696 6.90769 20.1629 6.90785 20.1574 6.92481C20.1405 6.92977 20.0846 6.92481 20.0434 6.95409C20.0021 6.98337 19.888 7.08017 19.8443 7.09713C19.8613 7.06801 19.8854 7.02449 19.8854 7.02449C19.8854 7.02449 19.7666 7.03649 19.6816 7.07249C19.5262 7.12593 19.3467 7.22305 19.1646 7.31761C19.1816 7.28849 19.189 7.26961 19.201 7.26417C19.213 7.25873 19.2422 7.25217 19.2422 7.24721C19.2422 7.24225 19.2302 7.19921 19.2374 7.18177C19.2919 7.06645 19.3561 6.95602 19.4294 6.85169C19.5144 6.73745 19.5314 6.57489 19.5314 6.57489L19.9027 6.38801L20.9464 6.14801L21.6237 6.18929L21.5387 6.65777L21.1387 7.47569L20.7965 8.22081L20.4056 8.67729L20.0464 8.93937H20.0462Z" fill="#543E26"/>
<path fill-rule="evenodd" clip-rule="evenodd" d="M21.7379 6.912C21.7379 6.912 21.3301 7.4168 21.216 7.49456C21.2888 7.3392 21.7379 6.4144 21.9005 6.15712C21.8642 6.128 21.8155 6.128 21.9296 5.67712C21.8327 5.90512 21.7986 6.02416 21.7186 6.0848C21.6386 6.14544 21.6287 6.12608 21.5746 6.12608C21.5848 6.10761 21.589 6.08641 21.5866 6.06544C21.5866 6.06544 21.2443 6.02416 21.0106 6.02416C20.7768 6.02416 20.3141 6.1504 20.0567 6.25232C19.8528 6.33728 19.7387 6.33728 19.6659 6.39056C19.5931 6.4512 19.5519 6.5168 19.5154 6.53376C19.4863 6.55072 19.348 6.5944 19.3163 6.64048C19.2872 6.68848 19.2387 6.7424 19.2387 6.75456C19.2387 6.76672 19.2266 6.78384 19.2631 6.77152C19.2751 6.76672 19.365 6.71808 19.4669 6.65744C19.6051 6.57984 19.7727 6.49008 19.8941 6.43664C20.2411 6.29824 20.3504 6.32256 20.5056 6.29344C20.6682 6.26432 20.9013 6.19632 21.0565 6.19632C21.2119 6.19152 21.5056 6.19632 21.5736 6.20848C21.5445 6.2328 21.5202 6.26192 21.5323 6.36384C21.5323 6.39296 21.508 6.42448 21.4843 6.49488C21.4117 6.69392 21.2733 7.024 21.1963 7.19152C21.0896 7.41952 20.9683 7.61136 20.9083 7.73024C20.8483 7.84912 20.7163 8.16224 20.5856 8.32976C20.4549 8.49728 20.3866 8.5992 20.3456 8.63568C20.3047 8.67216 20.0106 8.888 20.0325 8.96576C20.0859 8.9488 20.4234 8.82176 20.6683 8.54592C20.9133 8.27008 20.9621 8.10176 21.1538 7.9512C21.3455 7.80064 21.496 7.54832 21.5858 7.33968C21.661 7.14544 21.644 7.0848 21.7386 6.91248L21.7379 6.912Z" fill="#806031"/>
<path fill-rule="evenodd" clip-rule="evenodd" d="M12.9491 10.6797C12.9491 10.6797 12.8957 10.9005 12.7742 11.0098C12.6553 11.1166 12.4441 11.2088 12.42 11.3885C12.3909 11.568 12.6312 11.6579 12.6312 11.6579C12.6312 11.6579 12.5 11.8739 12.5 12.0365C12.5 12.204 12.4952 12.2355 12.5121 12.3957C12.4929 12.4081 12.4765 12.4244 12.4641 12.4437C12.4641 12.4437 12.4761 12.599 12.5952 12.696C12.7142 12.793 12.816 12.8514 12.8766 12.827C12.8859 12.8468 12.894 12.8671 12.901 12.8878C12.901 12.8878 12.9909 12.6597 13.0515 12.4606C13.1122 12.2568 13.1656 12.2858 13.1898 12.0115C13.2139 11.7373 13.4778 11.2664 13.4778 11.2664L13.6578 10.864L13.3642 10.6358L12.9491 10.6795V10.6797Z" fill="#B6903C"/>
<path fill-rule="evenodd" clip-rule="evenodd" d="M13.4952 11.0752C13.4347 11.1373 13.3788 11.2039 13.328 11.2742C13.2504 11.3811 13.1898 11.4781 13.0757 11.5195C12.9616 11.561 12.8888 11.5606 12.896 11.6749C12.9032 11.7891 13.0101 11.8374 13.0707 11.8957C13.1363 11.9563 13.1898 12.0582 13.1606 12.1725C13.197 12.1555 13.2626 12.136 13.3232 12.005C13.3838 11.8739 13.808 11.0754 13.808 11.0754H13.4952V11.0752Z" fill="#685026"/>
<path fill-rule="evenodd" clip-rule="evenodd" d="M15.168 9.23295C15.168 9.23295 15.2043 9.13599 15.168 9.06559C15.1315 8.99279 14.9107 8.96847 14.8014 8.88591C14.6874 8.80095 14.549 8.74191 14.4349 8.77919C14.4518 8.73791 14.5198 8.64799 14.464 8.62863C14.4106 8.61167 14.2117 8.70143 14.1582 8.74271C14.1048 8.78399 13.9834 8.83247 13.9592 8.86175C13.935 8.89103 13.8936 8.94671 13.8693 8.92239C13.845 8.90543 13.833 8.86175 13.7917 8.88591C13.7504 8.91007 13.5517 9.07279 13.515 9.16751C13.4784 9.26223 13.396 9.47343 13.1485 9.71359C12.901 9.95375 12.7941 10.1093 12.8669 10.199C12.9397 10.2888 12.9738 10.2234 12.9859 10.301C12.9953 10.3771 12.9912 10.4544 12.9738 10.5291C12.9446 10.6554 12.8962 10.7742 12.9616 10.7986C13.1291 10.852 13.2918 10.7506 13.3282 10.7816C13.401 10.847 13.2869 11.0826 13.4592 11.1286C13.6341 11.1766 13.8064 11.0874 13.8064 11.0874L14.4422 10.7451L15.0539 10.4224L15.3669 9.80335L15.199 9.28639L15.167 9.23295H15.168Z" fill="#D4B968"/>
<path fill-rule="evenodd" clip-rule="evenodd" d="M14.568 10.7112C14.568 10.7112 14.4611 10.5486 14.5923 10.4053C14.7235 10.2619 14.9103 10.2014 14.9831 10.1117C14.9692 10.0946 14.9506 10.082 14.9296 10.0754C14.9779 9.98889 15.0517 9.91935 15.1408 9.87616C15.1045 9.83984 15.0559 9.81072 15.0026 9.81072C14.8835 9.81072 14.8106 9.88352 14.7015 9.88352C14.5947 9.88352 14.5826 9.83008 14.5826 9.83008C14.5826 9.83008 14.7623 9.81312 14.7451 9.73296C14.7282 9.648 14.6971 9.648 14.6971 9.648C14.6971 9.648 15.0442 9.504 15.1048 9.4272C15.1655 9.3504 15.1583 9.25968 15.1704 9.22336C15.2115 9.22336 15.4519 9.09712 15.549 9.15056C15.6461 9.204 15.5781 9.3496 15.5781 9.3496C15.5781 9.3496 15.872 9.12864 16.0218 8.912C16.1528 8.92416 16.2138 8.82224 16.3098 8.82224C16.4288 8.82224 16.6157 8.9848 16.652 9.33184C16.6763 9.53088 16.7127 9.64496 16.6763 9.99696C16.6594 10.196 16.6642 10.621 16.7243 10.8318C16.7655 10.9994 16.8626 10.9824 16.8626 10.9824C16.8477 11.0334 16.8181 11.079 16.7776 11.1134C16.712 11.1741 16.7048 11.3344 16.712 11.395C16.7217 11.4394 16.7339 11.4831 16.7485 11.5261C16.7485 11.5261 16.6709 11.6158 16.6514 11.6766C16.6344 11.7373 16.5544 11.7786 16.496 11.7786C16.4376 11.7786 16.4669 11.7736 16.3893 11.7786C16.3117 11.7835 16.2874 11.7955 16.2387 11.7786C16.1901 11.7616 16.1538 11.7421 16.1733 11.5866C16.1903 11.4312 15.5738 11.0696 15.5738 11.0696L14.5658 10.7104L14.568 10.7112Z" fill="#CCA849"/>
<path fill-rule="evenodd" clip-rule="evenodd" d="M13.4102 12.2451C13.4102 12.2451 13.631 12.5389 14.5389 12.5389C14.9709 12.5389 15.1214 12.4976 15.2109 12.4733C15.308 12.449 15.672 12.3059 16.0385 11.8738C16.3686 11.483 16.2958 11.3229 16.2958 11.3229L16.1038 11.2938L15.4798 11.3787L13.6334 12.1651L13.4094 12.2451H13.4102Z" fill="#585136"/>
<path fill-rule="evenodd" clip-rule="evenodd" d="M14.0874 12.3179C14.0874 12.3179 13.301 12.4928 13.301 11.9952C13.301 11.5098 13.7864 11 13.9078 10.9102C14.0341 10.8203 14.335 10.7182 14.335 10.7182H15.0608L15.199 11.0848L15.1384 11.876L14.0874 12.3177V12.3179Z" fill="#252211"/>
<path fill-rule="evenodd" clip-rule="evenodd" d="M14.8131 10.8666C14.8131 10.8666 14.6627 10.7282 14.3205 10.9146C13.9782 11.101 13.7014 11.4906 13.6845 11.8443C13.6675 12.1573 13.9417 12.3904 14.3689 12.4026C14.6869 12.4146 14.8787 12.3782 14.9758 12.3546C14.9515 12.3254 14.8253 12.1677 14.8253 12.1677L14.8133 10.8667L14.8131 10.8666Z" fill="#C3B378"/>
<path fill-rule="evenodd" clip-rule="evenodd" d="M14.6651 10.944C14.6651 10.944 14.6288 10.9149 14.5211 10.9731C14.4314 11.0211 14.3003 11.148 14.1984 11.2378C14.1328 11.2912 14.0915 11.3154 14.0544 11.3567C13.9038 11.5363 13.7776 11.8301 13.8506 11.9757C13.9235 12.1213 14.1637 12.2888 14.7754 12.1747L14.6634 10.9442L14.6651 10.944Z" fill="#E6D89C"/>
<path fill-rule="evenodd" clip-rule="evenodd" d="M14.4661 11.2451C14.4661 11.2451 14.369 11.3957 14.369 11.636C14.369 11.8811 14.5074 12.2718 15.0171 12.301C15.4078 12.3253 15.6699 11.7379 15.9539 11.5097C16.1699 11.335 16.301 11.3301 16.301 11.3301C16.301 11.3301 16.0802 11.0901 15.4904 10.7792C14.9078 10.4661 14.2549 10.4248 13.9005 10.9054C14.068 10.8933 14.6093 10.7549 14.6093 10.7549L14.8739 10.8398L14.4661 11.2453V11.2451Z" fill="#252211"/>
<path fill-rule="evenodd" clip-rule="evenodd" d="M15.2282 11.5631C15.2112 11.5267 15.199 11.4781 15.2694 11.4661C15.3398 11.4541 15.3713 11.4611 15.3957 11.5141C15.42 11.5671 15.4437 11.6112 15.4077 11.6331C15.3713 11.6525 15.2766 11.6331 15.228 11.5627L15.2282 11.5631ZM15.1141 11.2208C15.1141 11.2208 15.0898 11.2378 15.1019 11.2039C15.1067 11.1627 15.1384 11.0898 15.216 11.1069C15.2936 11.124 15.2768 11.2088 15.264 11.2331C15.2512 11.2575 15.1864 11.2986 15.1378 11.2811C15.1316 11.2796 15.1259 11.2766 15.1211 11.2724C15.1163 11.2682 15.1126 11.2629 15.1102 11.257C15.1078 11.2511 15.1069 11.2447 15.1075 11.2384C15.108 11.232 15.1101 11.2259 15.1134 11.2205L15.1141 11.2208Z" fill="#6F674D"/>
<path fill-rule="evenodd" clip-rule="evenodd" d="M8.54398 11.376C8.54398 11.376 8.73598 11.52 8.95901 11.5144C9.17981 11.5095 9.46381 11.2815 9.59485 11.1357C9.67245 11.0507 9.73885 10.961 9.81085 10.8906C9.87165 10.8299 9.91277 10.8008 9.94189 10.7595C9.98317 10.7115 10.0268 10.6213 10.0488 10.592C9.99533 10.6333 9.91773 10.7063 9.83757 10.7547C9.75997 10.8027 9.59245 10.893 9.52445 10.9173C9.45901 10.9416 8.77934 11.3013 8.77934 11.3013L8.54398 11.376Z" fill="#AC924C"/>
<path fill-rule="evenodd" clip-rule="evenodd" d="M8.83743 9.58257C8.83743 9.58257 8.94415 9.50977 9.15055 9.46353C9.34959 9.41553 9.75007 9.37857 9.75007 9.37857L10.0802 9.52257L10.2112 10.0202L9.97119 10.5373L9.66543 10.7293L9.31823 10.1711L8.83823 9.58353L8.83743 9.58257Z" fill="#9F8E57"/>
<path fill-rule="evenodd" clip-rule="evenodd" d="M8.40544 10.0267L8.2912 10.112C8.2912 10.112 8.32048 10.0586 8.34464 9.89601C8.3688 9.73345 8.4952 9.33777 8.67968 9.10961C8.86416 8.88145 8.85936 8.89361 8.85936 8.89361C8.84239 8.8905 8.82494 8.89105 8.8082 8.89522C8.79145 8.89938 8.77578 8.90707 8.76224 8.91777C8.78656 8.86401 8.94192 8.67201 9.09728 8.576C9.25264 8.48 9.31328 8.44976 9.47584 8.528C9.6384 8.60625 9.67968 8.64689 9.79872 8.64209C9.91776 8.63729 10.0195 8.51104 10.0195 8.51104C10.0195 8.51104 10.0438 8.58865 9.95408 8.76833C9.86432 8.94801 9.50992 9.31441 9.50992 9.31441L8.772 9.81921L8.40544 10.0272V10.0267Z" fill="#EAC970"/>
<path fill-rule="evenodd" clip-rule="evenodd" d="M8.95135 9.52192C8.95135 9.52192 9.48543 9.59472 9.64799 9.44432C9.65279 9.46128 9.67232 9.46128 9.67232 9.47344C9.67101 9.4826 9.66674 9.49109 9.66016 9.4976C9.67784 9.49478 9.69569 9.49317 9.71359 9.4928C9.73497 9.49916 9.75696 9.50324 9.7792 9.50496C9.7971 9.50457 9.81496 9.50291 9.83263 9.5C9.83095 9.51206 9.82685 9.52366 9.82058 9.53411C9.81431 9.54455 9.80601 9.55363 9.79616 9.5608C9.82048 9.5608 9.84416 9.5656 9.84416 9.58496C9.84416 9.60432 9.84895 9.66272 9.81983 9.67488C9.79571 9.68155 9.77003 9.6798 9.74704 9.66992C9.74896 9.71587 9.76144 9.76077 9.78351 9.80112C9.83151 9.89088 9.93391 9.99312 10.0715 9.96368C10.0715 9.96368 10.1442 10.1384 9.8384 10.5267C9.79728 10.5802 9.75344 10.653 9.70016 10.7136C9.6791 10.7595 9.66301 10.8075 9.65216 10.8568C9.65216 10.8568 10.1693 10.6578 10.3173 10.2038C10.4678 9.74752 10.497 9.29856 10.4678 8.87872C10.4629 8.75968 10.4435 8.67488 10.4144 8.61408C10.3416 8.46352 10.1376 8.48784 10.0552 8.5728C9.93616 8.69184 9.73712 8.98784 9.46048 9.19168C9.17888 9.39552 9.16687 9.43168 8.95071 9.52192H8.95135Z" fill="#D7BC6B"/>
<path fill-rule="evenodd" clip-rule="evenodd" d="M8.31071 10.1773C8.31071 10.1773 8.20879 10.238 8.15535 10.4653C8.10191 10.6983 8.20335 10.9823 8.26207 11.072C8.32079 11.1618 8.45407 11.4071 8.73055 11.4192C8.79899 11.4189 8.86666 11.4048 8.92959 11.3779C9.02611 11.3337 9.11664 11.2774 9.19903 11.2104C9.31807 11.1207 9.41503 11.0431 9.40287 11.0357C9.37375 11.0235 8.66991 10.441 8.66991 10.441L8.40527 10.1456L8.31055 10.1776L8.31071 10.1773Z" fill="#585136"/>
<path fill-rule="evenodd" clip-rule="evenodd" d="M8.97598 11.1432C8.97598 11.1432 9.11919 11.1312 9.20415 11.0778C9.28911 11.0243 8.70654 10.4467 8.70654 10.4467L8.74782 11.0707L8.97598 11.1432Z" fill="#453A25"/>
<path fill-rule="evenodd" clip-rule="evenodd" d="M8.35682 10.1335C8.35682 10.1335 8.28402 10.2719 8.28402 10.3083C8.27186 10.4272 8.30834 10.801 8.33746 10.9199C8.36658 11.0461 8.52434 11.2378 8.72834 11.2378C8.85442 11.2378 9.0293 11.1602 9.0293 11.1408C9.0293 11.1165 8.84962 11.0928 8.80114 11.0024C8.77202 10.9544 8.75986 10.8351 8.75314 10.7144C8.74834 10.6368 8.74834 10.5519 8.77746 10.5224C8.84306 10.4496 8.85506 10.2408 8.85506 10.2408L9.08802 9.80801H8.78162L8.41506 10.0362L8.35682 10.1335Z" fill="#84754B"/>
<path fill-rule="evenodd" clip-rule="evenodd" d="M8.26703 10.2671C8.26703 10.2671 8.50703 9.94913 8.72335 9.87617C8.93967 9.80321 9.03647 9.84705 9.03647 9.84705L8.91023 10.1699L8.73055 10.369L8.74271 10.4709C8.74271 10.4709 8.71343 10.7403 8.89311 10.9272C9.07279 11.1141 9.20623 11.1069 9.28399 11.1069C9.36175 11.1069 9.58495 11.0413 9.69903 10.7718C9.80095 10.5195 9.88591 10.1959 9.68207 9.87137C9.48287 9.54849 9.13103 9.53601 9.06303 9.53601C8.99503 9.53601 8.46111 9.56273 8.26703 10.2666V10.2671Z" fill="#252211"/>
<path fill-rule="evenodd" clip-rule="evenodd" d="M14.4296 11.347C14.3398 11.3058 14.4248 11.0534 14.5145 10.9757C14.6043 10.8979 14.7184 10.8083 14.9176 10.796C14.9902 10.7912 15.0606 10.8373 15.0486 10.8859C15.0317 10.9757 14.9054 11.1019 14.7913 11.1917C14.6336 11.3155 14.5315 11.3931 14.4296 11.347Z" fill="#F7F7E7"/>
<path fill-rule="evenodd" clip-rule="evenodd" d="M9.57519 9.97088C9.6408 9.96608 9.72576 10.0189 9.74272 10.0899C9.75968 10.1675 9.70144 10.3229 9.57519 10.3229C9.47327 10.3229 9.41983 10.1966 9.41983 10.1603C9.42098 10.1305 9.42932 10.1013 9.44415 10.0754C9.44895 10.068 9.46111 9.98304 9.57519 9.97088Z" fill="#F8F6DE"/>
<path fill-rule="evenodd" clip-rule="evenodd" d="M8.62863 10.0267C8.62863 10.0267 8.4611 10.1043 8.3835 10.2667C8.32805 10.3866 8.31128 10.5208 8.3355 10.6507C8.34766 10.7113 8.4083 10.8618 8.44958 10.9152C8.49087 10.9686 8.54671 11.0051 8.58799 11.0002C8.62927 10.9952 8.71407 10.8861 8.71407 10.8206C8.71407 10.7552 8.71903 10.4784 8.79903 10.3278C8.86943 10.1774 8.62911 10.0269 8.62911 10.0269L8.62863 10.0267Z" fill="#D4C38B"/>
<path fill-rule="evenodd" clip-rule="evenodd" d="M8.65295 10.0146C8.62383 10.0315 8.57535 10.0558 8.58735 10.0874C8.59951 10.1165 8.70143 10.1354 8.73791 10.2064C8.77919 10.2792 8.77919 10.3568 8.76703 10.3933C8.79873 10.3782 8.8275 10.3576 8.85199 10.3325C8.90543 10.2718 8.97087 10.1894 9.02671 10.1894C9.06319 10.1894 9.09951 10.2064 9.13359 10.2064C9.18703 10.2064 9.24031 10.1894 9.24767 10.1336C9.25967 10.0608 9.14575 9.99519 9.08015 10.0074C9.09231 9.95935 9.10927 9.88847 9.05583 9.83983C9.00239 9.79119 8.83503 9.87631 8.79855 9.90063C8.76207 9.92495 8.65295 10.0147 8.65295 10.0147V10.0146Z" fill="#E2D59D"/>
<path fill-rule="evenodd" clip-rule="evenodd" d="M12.5098 15.1141L12.869 15.008L12.9709 15.0808C12.9709 15.0808 13.0435 15.2362 13.1578 15.2555C13.1213 15.3331 13.0266 15.3995 13.0315 15.4546C13.0365 15.5096 13.085 15.5517 13.085 15.5517C13.085 15.5517 12.7621 16.0856 13.3981 16.6237C13.2475 16.6843 13.0558 16.7677 12.9539 16.8157C13.0266 16.8326 13.1819 16.8637 13.2475 16.9226C13.3131 16.9814 13.3131 17.0002 13.3738 17.0366C13.4344 17.0731 13.4707 17.1216 13.4587 17.1434C13.4174 17.119 13.279 17.0464 13.2549 17.1142C13.2307 17.1821 12.6554 17.1555 12.6554 17.1555L11.6845 17.3424C11.6845 17.3424 11.7208 17.2453 11.6189 17.1555C11.5 17.0488 11.3544 17.1603 11.199 17.0414C10.9952 16.8861 10.9878 16.7064 10.9224 16.6386C10.9878 16.5973 11.1214 16.5366 11.4394 16.4946C11.4272 16.4702 11.3859 16.3974 11.4102 16.332C11.4394 16.247 11.5606 16.1936 11.5243 16.092C11.5778 16.0798 11.6019 16.0798 11.7355 15.9123C11.8618 15.7448 11.9394 15.7085 12.0365 15.6963C12.1336 15.6842 12.1918 15.6963 12.3715 15.5288C12.4976 15.4099 12.4565 15.308 12.4565 15.308C12.4565 15.308 12.5389 15.2813 12.5099 15.1138L12.5098 15.1141Z" fill="#CBAC5A"/>
<path fill-rule="evenodd" clip-rule="evenodd" d="M11.4491 15.168C11.4539 15.1437 11.4734 15.1315 11.6045 15.1437C11.7355 15.1558 12.5656 15.0661 12.7913 15.0539C13.0195 15.037 13.8229 15.049 14.2137 15.1315C14.6046 15.2141 15.0001 15.3112 15.1918 15.3597C15.3838 15.4131 15.4443 15.4323 15.4369 15.4566C15.4321 15.4809 15.3889 15.5046 15.3641 15.4979C15.34 15.4931 14.704 15.2989 14.5075 15.2579C14.311 15.217 13.6312 15.1074 13.2595 15.1139C12.9125 15.1189 12.7741 15.1091 12.4805 15.143C12.1867 15.1795 11.7013 15.228 11.5557 15.2086C11.4117 15.1917 11.4414 15.1917 11.4488 15.1674L11.4491 15.168Z" fill="#D6BC6F"/>
<path fill-rule="evenodd" clip-rule="evenodd" d="M13.4029 17.0704C13.4029 17.0704 13.9005 17.3398 14.0802 17.6699C14.2112 17.915 14.0026 18.0365 14.0026 18.0365C14.0026 18.0365 14.2842 18.0365 14.2477 18.1918C14.2307 18.2888 13.7623 18.5509 13.4491 18.6893C13.1312 18.8277 13.1434 18.8205 12.988 18.8446C12.8375 18.8689 12.4248 18.7966 12.3399 18.9174C12.2549 19.0382 12.2919 19.1627 12.3155 19.1821C12.3399 19.199 12.5365 19.2233 12.5365 19.2233C12.5365 19.2233 12.4952 19.3374 12.0875 19.3496C11.6799 19.3617 11.5778 19.3907 11.5535 19.4345C11.5291 19.4757 11.6311 19.4515 11.8181 19.4825C12.005 19.5117 12.2671 19.5305 12.2671 19.5305C12.2671 19.5305 12.1821 19.6033 11.9613 19.6616C11.7088 19.727 11.3131 19.7878 11.1943 19.8606C11.2549 19.9019 11.3448 19.9625 11.3863 19.9673C11.2843 19.9917 11.141 20.0451 11.1168 20.0645C11.1531 20.0888 11.2018 20.1179 11.2018 20.1179C11.2018 20.1179 10.9978 20.363 10.8789 20.4238C10.76 20.4846 10.0755 20.8024 9.84002 20.7417C9.25266 20.5864 9.17986 19.9432 9.03666 19.8947C8.82066 19.8219 8.71874 19.9673 8.5269 19.8654C8.61186 19.8048 8.6581 19.7685 8.74786 19.7272C8.65074 19.6792 8.14834 19.3606 8.14834 19.3606C8.09581 19.2461 8.03749 19.1343 7.97362 19.0257C7.8765 18.8582 7.73362 18.6349 7.62642 18.4382C7.39346 18.0062 7.3813 17.8072 7.1701 17.5621C7.20658 17.5141 7.33267 17.5208 7.33267 17.5208L9.10226 18.1033L12.24 18.1942L13.056 17.0293L13.4031 17.0705L13.4029 17.0704Z" fill="#DFC677"/>
<path fill-rule="evenodd" clip-rule="evenodd" d="M8.75488 18.847C8.77382 18.8681 8.79589 18.8861 8.82032 18.9005C8.88112 18.9418 8.97088 18.9904 9.03152 19.063C9.05584 19.0267 9.11648 18.9611 9.22352 19.063C9.33056 19.165 9.46352 19.0923 9.54624 19.1165C9.6312 19.1458 9.636 19.1578 9.636 19.1578C9.636 19.1578 9.684 19.1165 9.79136 19.0728C9.85696 19.0485 9.93456 19.0315 10.0195 19.0074C10.0971 18.9904 10.1821 18.9661 10.2405 18.9661C10.2939 19.0024 10.4856 19.2061 11.255 18.9054C11.9808 18.6238 12.1482 18.5923 12.2696 18.6358C12.2818 18.6067 12.2939 18.5509 12.4808 18.5582C12.4808 18.4806 12.3254 18.216 12.3254 18.216L11.4686 17.9224H11L9.59472 18.1797L8.816 18.624L8.75536 18.848L8.75488 18.847Z" fill="#C4A859"/>
<path fill-rule="evenodd" clip-rule="evenodd" d="M8.28641 18.3544C8.28641 18.3544 8.30337 18.4854 8.49761 18.6238C8.68961 18.7621 8.74993 18.8446 8.74993 18.8446C8.74993 18.8446 8.78641 18.7966 8.81553 18.7477C8.84465 18.6942 8.86897 18.6336 8.91745 18.6166C9.01457 18.5754 9.23537 18.653 9.28401 18.6408C9.32529 18.6288 9.31313 18.5438 9.35681 18.5438C9.45873 18.5389 9.52417 18.6093 9.56065 18.6093C9.59713 18.6093 9.68673 18.6045 9.69889 18.5851C9.71105 18.5658 9.71585 18.3642 9.85425 18.267C10.0048 18.1603 10.1893 18.2064 10.2382 18.2307C10.2382 18.267 10.243 18.357 10.3402 18.3618C10.4373 18.3666 10.4469 18.3496 10.5322 18.3787C10.6174 18.4078 10.719 18.3739 10.7651 18.517C10.8064 18.505 10.9035 18.4928 10.8792 18.3544C10.9272 18.3181 10.9691 18.2938 11.0712 18.1506C11.0955 18.1142 11.1366 18.073 11.1683 18.0195C11.2533 18.0195 11.3552 18.0026 11.491 18.1214C11.4498 18.1506 11.4254 18.1694 11.4134 18.199C11.449 18.2342 11.4814 18.2724 11.5104 18.3131C11.5469 18.3611 11.5712 18.42 11.6173 18.4322C11.7192 18.4613 11.8867 18.42 12.0736 18.4322C12.2533 18.4443 12.4037 18.5098 12.4693 18.551C12.4936 18.539 12.4936 18.5341 12.5542 18.5462C12.6149 18.5584 12.661 18.5632 12.5955 18.4856C12.6318 18.5026 12.6731 18.539 12.7096 18.5026C12.7461 18.4661 12.775 18.4128 12.877 18.4006C12.9789 18.3885 13.0154 18.4054 13.0566 18.2987C13.1101 18.1677 12.9256 18.1677 12.9256 18.1677C12.9256 18.1677 13.0106 18.0899 13.1053 17.988C13.2194 17.8813 13.3504 17.7429 13.3819 17.573C13.4354 17.2598 13.1296 17.2187 13.1296 17.2187L11.6466 17.675L9.83345 17.5851L8.28737 18.3546L8.28641 18.3544Z" fill="#927D49"/>
<path fill-rule="evenodd" clip-rule="evenodd" d="M6.95392 14.0704C6.95392 14.0704 6.90592 14.1311 6.87632 14.2743C6.84672 14.4175 6.85936 14.4005 6.83504 14.5024C6.81072 14.6043 6.512 15.6189 6.624 15.9611C6.736 16.3034 6.92992 16.4296 7.0512 16.7062C7.07552 16.7669 7.0992 16.8034 7.11184 16.8568C7.15312 17.0363 7.1168 17.1747 7.16528 17.3544C7.18224 17.415 7.22608 17.4854 7.29152 17.5582C7.43552 17.7086 7.67024 17.8518 7.77152 17.9538C7.91456 18.1043 8.11856 18.4102 8.37824 18.4392C8.51664 18.4562 8.71328 18.3979 8.87584 18.301C9.01984 18.211 9.1088 18.085 9.25984 18.013C9.36656 17.9595 9.48064 17.9402 9.58256 17.9158C9.79376 17.8746 9.9856 17.8678 10.0997 17.8915C10.2744 17.928 10.687 18.0542 10.9157 18.0542C11.0943 18.0514 11.272 18.0269 11.4448 17.9814C11.7918 17.8795 12.2117 17.7046 12.4885 17.627C12.651 17.579 12.7821 17.5664 12.9157 17.5373C13.1438 17.4838 13.3355 17.411 13.4448 17.2726C13.372 17.1877 13.2822 17.0566 12.7966 17.0614C12.2458 17.0736 11.6098 17.3794 11.2966 17.428C10.9835 17.4766 10.8477 17.5178 10.4981 17.3915C10.1554 17.264 10.144 17.1797 10.144 17.1797C10.144 17.1797 9.78416 16.928 9.6336 16.2864C9.48304 15.6448 9.6336 15.1773 10.0245 14.733C10.1264 14.6189 10.1021 14.517 10.1021 14.517C10.1021 14.517 10.3594 14.1699 10.289 13.845C10.2114 13.5221 9.71376 13.5877 9.71376 13.5877L6.95408 14.0704H6.95392Z" fill="#6E6342"/>
<path fill-rule="evenodd" clip-rule="evenodd" d="M7.36893 15.1506C7.34753 15.1908 7.33747 15.2361 7.33981 15.2816C7.34461 15.3471 7.36413 15.432 7.56061 15.6239C7.72813 15.7912 7.69165 15.9781 7.69165 15.9781C7.69165 15.9781 7.77597 15.9951 8.00477 15.888C8.18445 15.8031 8.24477 15.9536 8.24477 15.9536C8.29707 15.9262 8.35377 15.9081 8.41229 15.9002C8.46532 15.8953 8.51664 15.8789 8.56269 15.8522C8.56269 15.8522 8.77389 16.0682 8.95837 16.1701C9.12589 16.26 9.22301 16.3207 9.30557 16.26C9.38317 16.2066 9.38317 16.0973 9.37821 16.0488C9.35896 16.0041 9.33458 15.9617 9.30557 15.9226C9.25213 15.845 9.16717 15.7551 9.16157 15.6826C9.14941 15.5152 9.28781 15.316 9.25853 15.2675C9.22925 15.2191 9.12029 15.2069 8.85085 15.304C8.57181 15.3962 7.36781 15.1511 7.36781 15.1511L7.36893 15.1506Z" fill="#39331F"/>
<path fill-rule="evenodd" clip-rule="evenodd" d="M8.00479 16.2355C8.00479 16.2355 7.86655 16.1045 7.91503 15.4685C7.97372 15.4676 8.03233 15.4733 8.08976 15.4855C8.08976 15.4855 8.16512 15.9783 8.00479 16.2355Z" fill="#292311"/>
<path fill-rule="evenodd" clip-rule="evenodd" d="M7.0195 13.585C7.03879 13.5707 7.05668 13.5546 7.07294 13.537C7.02494 13.6267 6.80334 13.9859 6.98302 14.5515C7.1627 15.1146 7.61406 15.5344 8.1699 15.5539C8.72574 15.5734 9.0179 15.3014 9.35198 14.8938C9.48302 14.7312 9.63358 14.5272 9.76702 14.389C9.96606 14.1728 10.1214 14.1122 10.1214 13.9035C10.1214 13.4763 9.68446 13.2845 9.04126 13.0928C8.39806 12.9011 7.8179 12.9248 7.51694 13.056C7.22334 13.199 7.0971 13.3496 7.01934 13.5851L7.0195 13.585Z" fill="#252211"/>
<path fill-rule="evenodd" clip-rule="evenodd" d="M9.08495 16.4272L9.13295 16.4029C9.13295 16.4029 9.14495 16.2109 9.22271 16.216C9.30031 16.2281 9.33679 16.3302 9.32943 16.3665C9.32463 16.4029 9.30527 16.4637 9.22751 16.4563C9.12559 16.4587 9.08447 16.4272 9.08447 16.4272H9.08495Z" fill="#3F3824"/>
<path fill-rule="evenodd" clip-rule="evenodd" d="M8.86896 15.6117C8.86896 15.6117 8.91696 15.5947 8.97568 15.653C9.02368 15.653 9.23296 15.6287 9.29856 15.6699C9.36416 15.7112 9.38352 15.7475 9.38352 15.7475C9.38352 15.7475 9.1384 15.801 9.0048 15.7475C8.86896 15.7015 8.86896 15.6117 8.86896 15.6117Z" fill="#2D2815"/>
<path fill-rule="evenodd" clip-rule="evenodd" d="M9.94913 15.648C9.94913 15.6359 9.81808 15.5461 9.67968 15.5168C9.65536 15.512 9.6504 15.529 9.63168 15.529C9.61952 15.5242 9.61472 15.4877 9.61472 15.4877L9.536 15.5291C9.536 15.5291 9.52384 15.5461 9.56512 15.5771C9.60144 15.6063 9.66224 15.6306 9.6792 15.6791C9.69616 15.7275 9.69616 15.7445 9.70352 15.7519C9.70832 15.7567 9.79328 15.7519 9.83456 15.7275C9.87585 15.7032 9.95361 15.6635 9.94865 15.6475L9.94913 15.648Z" fill="#82764F"/>
<path fill-rule="evenodd" clip-rule="evenodd" d="M8.72336 16.1408C8.72336 16.1408 8.74752 15.9734 8.91024 15.9661C9.0776 15.9539 9.10928 16.1165 9.10928 16.1165L9.01216 16.2136C9.01216 16.2112 8.93936 16.1093 8.72416 16.1408H8.72336Z" fill="#2D2816"/>
<path fill-rule="evenodd" clip-rule="evenodd" d="M9.77919 15.4198C9.77919 15.4198 9.68927 15.517 9.49039 15.5461C9.47343 15.5218 9.43695 15.4733 9.49039 15.3957C9.54383 15.3181 9.60447 15.2938 9.66511 15.3179C9.69186 15.3223 9.71682 15.3342 9.73704 15.3522C9.75725 15.3703 9.77188 15.3937 9.77919 15.4198Z" fill="#574F35"/>
<path fill-rule="evenodd" clip-rule="evenodd" d="M10.1456 15.5389C10.1506 15.5146 10.1336 15.5098 10.1456 15.4976C10.1576 15.4855 10.2234 15.4613 10.2355 15.4733C10.2403 15.4783 10.2355 15.4976 10.2355 15.5213C10.2355 15.545 10.2355 15.5693 10.2234 15.5867C10.2064 15.6111 10.1579 15.6232 10.1336 15.616C10.1093 15.6088 10.1045 15.5747 10.1045 15.568C10.1165 15.5632 10.1456 15.5511 10.1456 15.5389ZM10.56 15.2768C10.56 15.2647 10.6013 15.2404 10.6256 15.2404C10.6619 15.2404 10.6619 15.2695 10.6669 15.2768C10.6789 15.2816 10.6789 15.2719 10.691 15.2938C10.7032 15.3157 10.7203 15.3544 10.708 15.3788C10.6957 15.4031 10.6474 15.4199 10.6354 15.4151C10.6184 15.4029 10.565 15.2938 10.56 15.2768Z" fill="#82764F"/>
<path fill-rule="evenodd" clip-rule="evenodd" d="M9.72577 15.5947C9.72577 15.5947 9.77921 15.6067 9.85201 15.6675C9.82769 15.6845 9.79121 15.7038 9.79121 15.7038C9.79121 15.7038 9.78641 15.648 9.72577 15.5945V15.5947Z" fill="#6E6342"/>
<path fill-rule="evenodd" clip-rule="evenodd" d="M9.6069 15.0607C9.59474 15.0487 9.64322 15.0195 9.67234 15.0243C9.70146 15.0291 9.71362 15.0487 9.74514 15.0535C9.77666 15.0583 9.78162 15.0413 9.79314 15.0291C9.80466 15.017 9.84658 15.0243 9.85378 15.0291C9.85826 15.0345 9.86233 15.0401 9.86594 15.0461C9.86645 15.0369 9.86885 15.0278 9.87301 15.0196C9.87717 15.0113 9.88299 15.004 9.8901 14.9981C9.89941 14.9913 9.91015 14.9866 9.92151 14.9845C9.93287 14.9824 9.94455 14.9829 9.9557 14.9859C9.9605 15.0029 9.98482 15.0635 9.98002 15.0757C9.97522 15.0879 9.90242 15.105 9.8901 15.0927C9.90226 15.1219 9.9557 15.1826 9.9629 15.1946C9.9701 15.2066 9.90946 15.2359 9.8853 15.2311C9.85138 15.2287 9.64258 15.1072 9.60626 15.0611L9.6069 15.0607ZM9.92482 14.6578C9.92032 14.6455 9.91173 14.6352 9.9005 14.6286C9.88354 14.6238 9.8277 14.6286 9.8277 14.6578C9.8277 14.6869 9.8757 14.8498 9.92962 14.9346C9.99042 15.0195 10.0315 15.0898 10.0728 15.1093C10.0858 15.1152 10.1005 15.116 10.114 15.1115C10.1275 15.1069 10.1388 15.0975 10.1456 15.085C10.1504 15.0728 10.1626 14.9831 10.1578 14.7718C10.153 14.5606 10.1456 14.3568 10.1335 14.3446C10.1213 14.3325 10.0728 14.3326 10.0559 14.3568C10.0389 14.381 9.92962 14.6214 9.92466 14.6578H9.92482Z" fill="#585136"/>
<path fill-rule="evenodd" clip-rule="evenodd" d="M9.7088 15.9005C9.7088 15.9005 9.62383 15.8471 9.54127 15.8835C9.46367 15.92 9.46847 16.0632 9.46847 16.0632C9.48593 16.07 9.50479 16.0725 9.52342 16.0704C9.54205 16.0683 9.55988 16.0616 9.57535 16.051C9.62879 16.0147 9.69664 15.9541 9.7088 15.9006V15.9005Z" fill="#574F35"/>
<path fill-rule="evenodd" clip-rule="evenodd" d="M9.86895 16.0923C9.86415 16.0443 9.82095 16.0443 9.82095 16.0195C9.82393 16.0077 9.8308 15.9972 9.84046 15.9897C9.85012 15.9822 9.86201 15.9782 9.87423 15.9783C9.89855 15.9783 9.92223 16.0074 9.95199 16.0263C9.98111 16.0432 10.0248 16.0743 10.0296 16.1112C10.0344 16.1482 9.98159 16.2495 9.92287 16.2495C9.86415 16.2495 9.88159 16.1402 9.86943 16.0917L9.86895 16.0923ZM10.3374 16.0267C10.3374 16.0267 10.2403 16.0559 10.2475 16.0267C10.2547 15.9976 10.2768 15.9904 10.3083 15.9904C10.3243 15.9737 10.3459 15.9633 10.369 15.9611C10.3822 15.9605 10.3951 15.9648 10.4053 15.9733C10.4053 15.9733 10.4709 15.9442 10.4902 15.9611C10.5096 15.9781 10.4952 15.9781 10.5072 15.9976C10.5225 16.0193 10.5325 16.0442 10.5365 16.0704C10.5365 16.0898 10.4637 16.1311 10.4053 16.1239C10.3374 16.1093 10.3494 16.0389 10.3374 16.0267ZM10.9029 15.9175C10.9029 15.9175 10.932 15.9344 10.9078 15.9539C10.8909 15.9709 10.8059 16.0019 10.733 16.0074C10.6602 16.0074 10.5947 16.0194 10.5947 15.9952C10.5947 15.9711 10.6554 15.9224 10.6917 15.9103C10.699 15.9011 10.7082 15.8938 10.7187 15.8887C10.7293 15.8837 10.7408 15.8811 10.7525 15.8811C10.7816 15.8811 10.8955 15.869 10.9272 15.8642C10.9563 15.8592 10.9806 15.8762 10.9635 15.9005C10.9563 15.9175 10.9029 15.9175 10.9029 15.9175ZM11.0704 15.168C11.0704 15.168 11.0339 15.2456 10.9928 15.2456C10.9515 15.2408 10.9515 15.2286 10.9515 15.2165C10.9515 15.1995 10.9928 15.1558 10.9878 15.1437C10.9758 15.1437 10.9466 15.1437 10.9515 15.1146C10.9515 15.0902 10.9928 15.0611 11.0291 15.0666C11.0566 15.044 11.0907 15.0312 11.1262 15.0302C11.1675 15.0302 11.2038 15.0422 11.2038 15.0666C11.2038 15.0909 11.1558 15.1442 11.1382 15.1565C11.1189 15.1758 11.0946 15.1885 11.0704 15.1685V15.168ZM10.517 16.6024C10.517 16.6024 10.469 16.6074 10.469 16.6315C10.469 16.6437 10.481 16.6437 10.4981 16.6365C10.5079 16.6359 10.5177 16.6343 10.5272 16.6315C10.532 16.6365 10.532 16.6607 10.5685 16.6607C10.5984 16.6566 10.6273 16.6467 10.6534 16.6315C10.6826 16.6195 10.7069 16.6072 10.7069 16.5835C10.6947 16.5423 10.6704 16.5227 10.6341 16.5227C10.6155 16.5216 10.5969 16.5258 10.5806 16.5349C10.5806 16.5349 10.5685 16.5106 10.5272 16.5349C10.4859 16.5592 10.4907 16.5592 10.5029 16.5714C10.5246 16.5907 10.5174 16.6034 10.5174 16.6034L10.517 16.6024ZM10.2427 16.8549C10.2427 16.8427 10.3034 16.8184 10.3203 16.8258C10.3373 16.8306 10.3858 16.9227 10.3858 16.9325C10.3858 16.9447 10.3251 16.9738 10.3008 16.9738C10.2765 16.9738 10.2354 16.9325 10.2354 16.9258C10.2354 16.921 10.2645 16.9138 10.2645 16.9088C10.2717 16.8968 10.2427 16.8675 10.2427 16.8554V16.8549ZM10.0507 16.5005C10.0629 16.4957 10.0629 16.4835 10.0798 16.4714C10.0851 16.4678 10.0912 16.4656 10.0975 16.4647C10.1038 16.4639 10.1103 16.4645 10.1163 16.4666C10.1206 16.4589 10.1265 16.4524 10.1337 16.4473C10.1408 16.4422 10.149 16.4388 10.1576 16.4373C10.1867 16.4325 10.211 16.4373 10.2056 16.4495C10.2056 16.4859 10.2299 16.5101 10.2299 16.5392C10.2299 16.5683 10.213 16.6048 10.1523 16.6291C10.0917 16.6461 10.0091 16.6461 9.99695 16.6413C9.98479 16.6365 9.97263 16.5879 9.98479 16.5635C9.99695 16.5392 10.0309 16.5127 10.0504 16.5005H10.0507Z" fill="#82764F"/>
<path fill-rule="evenodd" clip-rule="evenodd" d="M10.128 16.517C10.128 16.517 10.0867 16.5413 10.0867 16.5534C10.0831 16.5652 10.0814 16.5775 10.0819 16.5898C10.0819 16.597 10.1354 16.585 10.1426 16.5776C10.145 16.5728 10.128 16.5296 10.128 16.517Z" fill="#6E6342"/>
<path fill-rule="evenodd" clip-rule="evenodd" d="M9.76704 16.4029C9.7912 16.4078 9.83248 16.4029 9.864 16.415C9.88832 16.4272 9.90528 16.4515 9.88096 16.4806C9.85664 16.5098 9.83296 16.5534 9.77904 16.5461C9.71841 16.5413 9.66017 16.5098 9.66017 16.4854C9.65915 16.4701 9.6612 16.4546 9.6662 16.44C9.67119 16.4255 9.67904 16.412 9.68929 16.4005C9.71361 16.3811 9.72561 16.3933 9.76688 16.4029H9.76704Z" fill="#585136"/>
<path fill-rule="evenodd" clip-rule="evenodd" d="M9.73793 16.4272C9.73793 16.4272 9.66033 16.4879 9.64081 16.5171C9.61649 16.5463 9.49761 16.6967 9.46129 16.7282C9.47335 16.7069 9.4871 16.6866 9.50241 16.6675C9.45441 16.6982 9.41842 16.7445 9.40049 16.7986C9.37137 16.8885 9.56321 16.937 9.68929 16.9735C9.81536 17.0099 9.86416 17.0215 9.86416 17.0215C9.81775 16.9517 9.7779 16.8778 9.74513 16.8007C9.69713 16.6866 9.67233 16.6744 9.70385 16.621C9.72817 16.5675 9.76464 16.5312 9.76464 16.4899C9.75008 16.4515 9.73793 16.4272 9.73793 16.4272Z" fill="#574F35"/>
<path fill-rule="evenodd" clip-rule="evenodd" d="M6.97087 16.619C6.98854 16.6223 7.00664 16.6223 7.02431 16.619C7.06063 16.6141 7.43935 16.475 7.83503 16.5C8.13124 16.5179 8.42483 16.5662 8.71119 16.644C9.20879 16.775 9.82767 17.0347 10.2282 17.1829C10.3349 17.224 10.4393 17.297 10.5161 17.3259C10.8221 17.445 10.8341 17.445 11.0137 17.4765C11.2249 17.5056 11.4409 17.4352 11.6667 17.3867C11.9433 17.3259 12.4166 17.2968 12.8317 17.2362C12.9659 17.2176 13.0983 17.1875 13.2273 17.1464C13.2273 17.1464 12.8973 17.4765 12.1059 17.5954C11.786 17.6439 11.461 17.648 11.14 17.6075C10.8875 17.5832 10.7201 17.5467 10.5939 17.5104C10.4507 17.4691 10.157 17.3598 9.79535 17.2704C9.54287 17.2048 9.26127 17.1563 8.93855 17.0957C8.14239 16.9499 7.27839 16.7826 6.97055 16.62L6.97087 16.619Z" fill="#252211"/>
<path fill-rule="evenodd" clip-rule="evenodd" d="M6.07758 15.119C5.88558 15.2816 5.6819 15.437 5.48302 15.5874L4.8835 16.048C4.67966 16.1984 4.48062 16.3538 4.27662 16.5043C4.07262 16.6549 3.86894 16.7979 3.65262 16.9363C3.84462 16.7738 4.0483 16.6232 4.25214 16.4752C4.45598 16.3272 4.66734 16.1821 4.86398 16.032L5.4635 15.5707C5.66974 15.4203 5.86878 15.265 6.07758 15.1194V15.119ZM5.01694 16.8181C5.01694 16.8181 5.23294 16.6384 5.50238 16.3861C5.83726 16.0731 6.2475 15.6725 6.37854 15.5998L5.01678 16.8183L5.01694 16.8181Z" fill="#CFB66C"/>
<path fill-rule="evenodd" clip-rule="evenodd" d="M5.01697 16.8179C5.12385 16.7112 5.23793 16.6069 5.35201 16.5048L5.52673 16.3544C5.58017 16.3064 5.64097 16.2525 5.69425 16.199C5.80097 16.0923 5.90545 15.9781 6.01217 15.8689C6.06506 15.8141 6.12099 15.7622 6.17969 15.7136C6.20903 15.6876 6.24163 15.6656 6.27665 15.648C6.30593 15.631 6.33745 15.6 6.37857 15.5945C6.35441 15.631 6.32529 15.648 6.30097 15.6795C6.27185 15.7038 6.24753 15.7329 6.22337 15.7571C6.16993 15.8105 6.10929 15.859 6.05585 15.9077C5.94177 16.0048 5.82289 16.0997 5.70881 16.2013C5.59473 16.3029 5.48801 16.4125 5.37377 16.5144C5.25009 16.6189 5.13601 16.7208 5.01697 16.8184V16.8179ZM6.46849 15.847C6.46849 15.847 5.67729 16.6214 5.51457 16.7475L6.46849 15.847Z" fill="#CFB66C"/>
<path fill-rule="evenodd" clip-rule="evenodd" d="M6.46845 15.847C6.39727 15.9294 6.32096 16.0072 6.23997 16.08L5.99997 16.3081C5.92237 16.3857 5.84941 16.4635 5.76701 16.5411C5.68205 16.6139 5.60445 16.6851 5.51453 16.7523L5.74749 16.5241C5.82525 16.4465 5.91021 16.3811 5.99277 16.3033L6.22573 16.0752C6.30573 15.9952 6.38349 15.9174 6.46845 15.847ZM6.50477 16.2669C6.43184 16.4704 6.3459 16.6691 6.24749 16.8616C6.04365 17.2694 5.73789 17.779 5.60429 18.0389L6.50477 16.2669Z" fill="#CFB66C"/>
<path fill-rule="evenodd" clip-rule="evenodd" d="M6.50477 16.267C6.50477 16.3568 6.48045 16.4345 6.45133 16.5121C6.42294 16.5898 6.39058 16.666 6.35437 16.7403C6.31789 16.8131 6.27661 16.8909 6.23533 16.9613C6.19405 17.0317 6.14557 17.1043 6.10909 17.1773L5.86397 17.6093C5.77901 17.7533 5.69645 17.8981 5.60669 18.0365C5.66733 17.8811 5.74989 17.7355 5.82765 17.5923C5.91261 17.4483 5.99021 17.3043 6.06765 17.1553C6.10546 17.0811 6.13948 17.005 6.16957 16.9273C6.20589 16.8496 6.24221 16.7768 6.27149 16.7064C6.30781 16.6288 6.33693 16.5558 6.37341 16.4856C6.41453 16.4102 6.44861 16.3374 6.50445 16.267H6.50477Z" fill="#CFB66C"/>
<path fill-rule="evenodd" clip-rule="evenodd" d="M7.36896 18.2573C7.36896 18.2573 7.12896 18.5752 7.15296 18.9781C7.2184 18.7671 7.30096 18.4442 7.36896 18.2573ZM7.59712 18.576C7.59712 18.576 7.51216 19.44 7.44176 19.8648C7.54128 19.3738 7.56064 19.4151 7.59712 18.576ZM9.18687 19.9159C9.18687 19.9159 8.82768 20.9719 8.82032 21.2653C8.89808 20.9635 9.04848 20.3471 9.18687 19.9151V19.9159Z" fill="#DEC270"/>
<path fill-rule="evenodd" clip-rule="evenodd" d="M10.0267 18.192C10.0267 18.192 10.6093 19.1531 11.0462 19.9734C10.928 19.5606 10.656 18.8035 10.0267 18.192Z" fill="#CBAF59"/>
<path fill-rule="evenodd" clip-rule="evenodd" d="M11.5923 19.6069C11.9122 20.1723 12.2006 20.7549 12.4563 21.352C12.4078 20.9394 12.2766 20.2331 11.5923 19.6069Z" fill="#E3C677"/>
<path fill-rule="evenodd" clip-rule="evenodd" d="M16.1942 21.024C16.2912 20.9634 16.483 20.6331 16.6506 20.5507C16.8179 20.4658 16.9442 20.4488 17.0947 20.2813C17.2451 20.1064 17.2867 19.9997 17.6165 19.8614C18.0778 19.6622 17.7605 19.405 17.7605 19.405C17.8113 19.3551 17.8656 19.3089 17.923 19.2667C18.0421 19.177 18.1803 19.0677 18.1683 18.8758C18.1514 18.5531 18.0907 18.0846 17.8261 17.8128C18.0834 17.7594 18.576 17.723 18.8821 17.6454C19.2363 17.5555 19.399 17.4293 19.399 17.4293C19.399 17.4293 19.1952 17.0822 19.5253 16.7328C19.8554 16.3834 20.1248 16.1746 20.3238 15.7837C20.0957 15.7546 19.7478 15.6333 18.8602 15.9706C18.9081 15.9931 18.9543 16.019 18.9986 16.0482C18.9986 16.0482 18.4525 16.1987 18.2534 16.3662C17.9062 16.6598 17.8626 16.9002 17.4864 17.0798C17.1102 17.2595 16.7315 17.2109 16.4186 17.3565C16.1056 17.5021 16.0594 17.6259 15.9451 17.6794C15.9694 17.7085 15.9403 17.757 15.9864 17.7982C15.9573 17.8395 15.7874 18.1162 15.615 18.1162C15.632 18.1818 15.7776 18.2302 15.7776 18.2302C15.7776 18.2302 15.6709 18.308 15.399 18.3274C15.5373 18.4714 15.6685 18.6283 16.0301 18.8565C16.001 18.9171 15.8795 19.007 15.9282 19.1211C15.9816 19.2352 16.1202 19.3906 16.6733 19.5168C16.3917 19.5288 16.0618 19.5944 15.6173 19.5338C15.1731 19.4803 15.1003 19.4488 14.8261 19.5168C14.8552 19.5459 14.9328 19.5459 15.0008 19.6235C14.928 19.6283 14.4717 19.5701 14.3163 19.7741C14.1538 19.9851 14.0834 20.3323 14.0955 20.5653C14.0106 20.6066 13.928 20.6794 13.9693 20.8299C14.0106 20.9805 14.2266 21.029 14.365 21.1235C14.5032 21.2254 14.5154 21.2618 14.6466 21.2376C14.7848 21.2085 14.9886 21.0702 15.1077 21.0702C15.2267 21.0702 15.3115 21.16 15.3115 21.16C15.3115 21.16 15.6344 21.0046 15.6659 21.0338C15.695 21.0629 15.6707 21.2498 15.7022 21.2789C15.7342 21.3008 16.0979 21.0848 16.195 21.024H16.1942Z" fill="#ECD592"/>
<path fill-rule="evenodd" clip-rule="evenodd" d="M23.2501 11.3107C21.7331 7.39327 17.983 6.66751 17.983 6.66751H7.284L7.32528 10.6578H9.456V19.568H7.28384V23.551H17.6869C20.1941 23.551 22.2038 21.0315 22.2038 21.0315C25.4222 16.4637 23.2499 11.3107 23.2499 11.3107H23.2501ZM17.7427 18.347C17.7427 18.347 16.9267 19.5243 16.0389 19.5243H14.2629L14.2208 10.6675H16.5C16.5 10.6675 17.556 10.8883 18.2938 12.9781C18.2938 12.9781 19.2718 15.9701 17.7427 18.347Z" fill="white" fill-opacity="0.8"/>
</svg>
