<svg width="21" height="10" viewBox="0 0 21 13" fill="none" xmlns="http://www.w3.org/2000/svg">
<path fill-rule="evenodd" clip-rule="evenodd" d="M7.00137 11.7496C7.00137 11.2656 7.39512 10.876 7.875 10.876H13.125C13.609 10.876 13.9986 11.2697 13.9986 11.7496C13.9986 12.2295 13.6049 12.6232 13.125 12.6232H7.875C7.39102 12.6232 7.00137 12.2336 7.00137 11.7496ZM3.49863 6.49961C3.49863 6.01562 3.89238 5.62598 4.37227 5.62598H16.6236C17.1076 5.62598 17.4973 6.01973 17.4973 6.49961C17.4973 6.97949 17.1035 7.37324 16.6236 7.37324H4.37637C3.89238 7.37324 3.49863 6.98359 3.49863 6.49961ZM0 1.24961C0 0.765625 0.39375 0.375977 0.873633 0.375977H20.1223C20.6063 0.375977 20.9959 0.769727 20.9959 1.24961C20.9959 1.72949 20.6021 2.12324 20.1223 2.12324H0.873633C0.39375 2.12324 0 1.73359 0 1.24961Z" fill="#901CEE"/>
</svg>
