<svg width="27" height="27" viewBox="0 0 27 27" fill="none" xmlns="http://www.w3.org/2000/svg">
<path d="M26.272 11.7437C26.2714 11.7431 26.2708 11.7425 26.2702 11.7418L15.2563 0.728394C14.7869 0.258728 14.1627 0 13.4988 0C12.8349 0 12.2107 0.258522 11.741 0.728188L0.732953 11.7361C0.729245 11.7398 0.725537 11.7437 0.721829 11.7474C-0.242221 12.717 -0.240573 14.2902 0.726567 15.2573C1.16842 15.6994 1.752 15.9554 2.37596 15.9822C2.4013 15.9847 2.42684 15.9859 2.45259 15.9859H2.89156V24.0912C2.89156 25.695 4.19653 27 5.80081 27H10.1098C10.5465 27 10.9008 26.6459 10.9008 26.209V19.8545C10.9008 19.1226 11.4961 18.5273 12.228 18.5273H14.7696C15.5015 18.5273 16.0968 19.1226 16.0968 19.8545V26.209C16.0968 26.6459 16.4509 27 16.8878 27H21.1968C22.8011 27 24.106 25.695 24.106 24.0912V15.9859H24.5131C25.1768 15.9859 25.8009 15.7274 26.2708 15.2577C27.239 14.289 27.2394 12.7131 26.272 11.7437Z" fill="#6A6D6D"/>
</svg>
