<svg width="490" height="64" viewBox="0 0 490 64" fill="none" xmlns="http://www.w3.org/2000/svg">
<path fill-rule="evenodd" clip-rule="evenodd" d="M32.3364 63.9998C41.4464 63.9998 49.6532 60.0991 55.4043 53.8633L61.7862 46.4363L83.3769 24.6601C85.6299 21.2811 89.456 19.058 93.7968 19.058C98.0073 19.058 101.733 21.1496 104.01 24.3589L117.53 11.3422C111.756 4.67406 103.264 0.461426 93.7968 0.461426C84.4485 0.461426 76.0514 4.56881 70.2827 11.0919C70.1235 11.272 69.9376 11.4408 69.7284 11.5984L63.0666 18.5414L56.4576 11.6376C56.2268 11.4689 56.023 11.287 55.8504 11.0919C50.0817 4.56881 41.6846 0.461426 32.3364 0.461426C14.9402 0.461426 0.837891 14.685 0.837891 32.2306C0.837891 49.7762 14.9402 63.9998 32.3364 63.9998ZM42.4604 39.1927C40.1769 42.332 36.4926 44.37 32.3364 44.37C25.4062 44.37 19.7882 38.7037 19.7882 31.714C19.7882 24.7243 25.4062 19.058 32.3364 19.058C36.6772 19.058 40.5032 21.2811 42.7563 24.6601L50.0062 31.9723L42.4604 39.1927Z" fill="url(#paint0_linear_1183_30107)"/>
<path d="M81.8846 35.7029L67.4726 49.8174L71.1716 54.3337C76.8973 60.2946 84.9181 63.9998 93.7968 63.9998C103.405 63.9998 112.008 59.6611 117.785 52.8204L103.792 39.3665C101.5 42.407 97.8758 44.37 93.7968 44.37C88.2485 44.37 83.5412 40.7381 81.8846 35.7029Z" fill="url(#paint1_linear_1183_30107)"/>
<path d="M143.958 31.9765C143.958 29.167 144.443 26.6003 145.414 24.2764C146.42 21.9525 147.808 19.9407 149.577 18.2412C151.38 16.5416 153.461 15.2409 155.82 14.3391C158.213 13.4026 160.797 12.9343 163.572 12.9343C166.381 12.9343 168.983 13.4026 171.376 14.3391C173.769 15.2409 175.833 16.5416 177.567 18.2412C179.336 19.9407 180.706 21.9525 181.678 24.2764C182.684 26.6003 183.186 29.167 183.186 31.9765C183.186 34.786 182.701 37.37 181.73 39.7286C180.793 42.0872 179.44 44.1337 177.672 45.8679C175.903 47.6022 173.821 48.9549 171.428 49.9261C169.07 50.8626 166.451 51.3308 163.572 51.3308C160.728 51.3308 158.109 50.8626 155.716 49.9261C153.323 48.9549 151.241 47.6022 149.472 45.8679C147.704 44.1337 146.333 42.0872 145.362 39.7286C144.426 37.37 143.958 34.786 143.958 31.9765ZM153.27 31.9765C153.27 34.127 153.687 36.0347 154.519 37.6995C155.386 39.3298 156.6 40.6131 158.161 41.5496C159.722 42.4861 161.526 42.9544 163.572 42.9544C165.653 42.9544 167.457 42.4861 168.983 41.5496C170.509 40.6131 171.688 39.3298 172.521 37.6995C173.388 36.0347 173.821 34.127 173.821 31.9765C173.821 29.826 173.405 27.9357 172.573 26.3055C171.74 24.6406 170.561 23.3399 169.035 22.4034C167.509 21.4669 165.688 20.9986 163.572 20.9986C161.526 20.9986 159.722 21.4669 158.161 22.4034C156.6 23.3399 155.386 24.6406 154.519 26.3055C153.687 27.9357 153.27 29.826 153.27 31.9765Z" fill="#363636"/>
<path d="M188.768 13.7668H201.411C206.059 13.7668 209.58 14.8247 211.973 16.9405C214.366 19.0563 215.563 21.9698 215.563 25.6811C215.563 29.3578 214.366 32.2713 211.973 34.4218C209.58 36.5376 206.059 37.5955 201.411 37.5955H197.561V50.1862H188.768V13.7668ZM201.411 20.9986H197.561V30.3116H201.411C203.18 30.3116 204.568 29.9127 205.573 29.115C206.579 28.3172 207.082 27.1726 207.082 25.6811C207.082 24.155 206.579 22.993 205.573 22.1953C204.568 21.3975 203.18 20.9986 201.411 20.9986Z" fill="#363636"/>
<path d="M221.184 13.7668H245.377V20.9986H229.665V27.5021H244.337V34.6299H229.665V42.9544H245.377V50.1862H221.184V13.7668Z" fill="#363636"/>
<path d="M277.662 13.7668H286.143V52.0072L261.013 29.7393V50.1862H252.533V11.9458L277.662 34.2137V13.7668Z" fill="#363636"/>
<path d="M296.703 31.9765C296.703 34.786 297.327 37.266 298.576 39.4165C299.859 41.5669 301.524 43.2492 303.571 44.4632C305.617 45.6771 307.837 46.2841 310.23 46.2841C312.797 46.2841 315.069 45.7812 317.046 44.7753C319.023 43.7695 320.653 42.4688 321.936 40.8732V46.7004C320.41 48.0531 318.745 49.0589 316.942 49.718C315.138 50.377 312.901 50.7065 310.23 50.7065C307.698 50.7065 305.322 50.2556 303.102 49.3538C300.917 48.4173 298.992 47.1166 297.327 45.4517C295.662 43.7521 294.362 41.7577 293.425 39.4685C292.489 37.1793 292.02 34.6819 292.02 31.9765C292.02 29.271 292.489 26.7737 293.425 24.4845C294.362 22.1953 295.662 20.2182 297.327 18.5533C298.992 16.8538 300.917 15.5531 303.102 14.6512C305.322 13.7147 307.698 13.2465 310.23 13.2465C312.901 13.2465 315.138 13.576 316.942 14.235C318.745 14.894 320.41 15.8999 321.936 17.2526V23.0797C320.653 21.4495 319.023 20.1488 317.046 19.1777C315.069 18.1718 312.797 17.6689 310.23 17.6689C307.837 17.6689 305.617 18.2758 303.571 19.4898C301.524 20.7038 299.859 22.386 298.576 24.5365C297.327 26.6523 296.703 29.1323 296.703 31.9765Z" fill="#363636"/>
<path d="M353.929 50.1862L349.299 39.2604H334.627L329.997 50.1862H325.054L341.963 11.9458L358.872 50.1862H353.929ZM341.963 21.9872L336.396 35.0982H347.53L341.963 21.9872Z" fill="#363636"/>
<path d="M390.877 13.7668H395.3V52.0072L367.725 23.0797V50.1862H363.303V11.9458L390.877 40.8732V13.7668Z" fill="#363636"/>
<path d="M416.651 41.9658L428.618 13.7668H433.56L416.651 52.0072L399.742 13.7668H404.685L416.651 41.9658Z" fill="#363636"/>
<path d="M457.782 50.1862L453.151 39.2604H438.479L433.849 50.1862H428.906L445.815 11.9458L462.724 50.1862H457.782ZM445.815 21.9872L440.248 35.0982H451.382L445.815 21.9872Z" fill="#363636"/>
<path d="M468.508 39.1563C469.722 41.3762 471.074 43.1625 472.566 44.5152C474.092 45.8679 475.948 46.5443 478.133 46.5443C480.075 46.5443 481.636 46.0066 482.815 44.9314C483.995 43.8562 484.584 42.4861 484.584 40.8212C484.584 39.191 484.203 37.8903 483.44 36.9191C482.676 35.9479 481.671 35.1675 480.422 34.5779C479.208 33.9535 477.907 33.3986 476.52 32.913C475.618 32.6008 474.612 32.2019 473.502 31.7164C472.392 31.1961 471.334 30.5544 470.329 29.7913C469.323 28.9936 468.49 28.0224 467.831 26.8778C467.207 25.7332 466.895 24.3284 466.895 22.6635C466.895 20.8599 467.346 19.247 468.247 17.8249C469.149 16.4028 470.398 15.2929 471.993 14.4952C473.589 13.6627 475.41 13.2465 477.456 13.2465C479.433 13.2465 481.15 13.628 482.607 14.3911C484.099 15.1195 485.365 16.0733 486.405 17.2526C487.446 18.3972 488.261 19.6112 488.85 20.8946L485.052 23.0797C484.602 22.1779 484.029 21.2935 483.335 20.4263C482.642 19.5592 481.792 18.8482 480.786 18.2932C479.815 17.7382 478.618 17.4607 477.196 17.4607C475.219 17.4607 473.78 17.9463 472.878 18.9175C471.976 19.854 471.525 20.9119 471.525 22.0912C471.525 23.6174 472.132 24.9527 473.346 26.0974C474.56 27.242 476.763 28.3692 479.954 29.4792C480.925 29.826 481.948 30.2769 483.023 30.8319C484.099 31.3868 485.087 32.0979 485.989 32.965C486.925 33.7975 487.688 34.8207 488.278 36.0347C488.868 37.214 489.163 38.636 489.163 40.3009C489.163 42.4167 488.625 44.255 487.55 45.8159C486.509 47.3767 485.139 48.5907 483.44 49.4578C481.74 50.2903 479.919 50.7065 477.977 50.7065C476 50.7065 474.161 50.2903 472.462 49.4578C470.797 48.5907 469.323 47.4634 468.039 46.076C466.791 44.6539 465.767 43.1451 464.97 41.5496L468.508 39.1563Z" fill="#363636"/>
<defs>
<linearGradient id="paint0_linear_1183_30107" x1="113.978" y1="0.461429" x2="5.37589" y2="57.5697" gradientUnits="userSpaceOnUse">
<stop stop-color="#FFBA02"/>
<stop offset="0.5" stop-color="#F41E5E"/>
<stop offset="1" stop-color="#6C01C3"/>
</linearGradient>
<linearGradient id="paint1_linear_1183_30107" x1="113.978" y1="0.461429" x2="5.37589" y2="57.5697" gradientUnits="userSpaceOnUse">
<stop stop-color="#FFBA02"/>
<stop offset="0.5" stop-color="#F41E5E"/>
<stop offset="1" stop-color="#6C01C3"/>
</linearGradient>
</defs>
</svg>
