<svg width="25" height="25" viewBox="0 0 25 25" fill="none" xmlns="http://www.w3.org/2000/svg">
<path d="M20.2144 18.2849C20.2144 17.7626 20.0236 17.3105 19.6419 16.9289C19.2602 16.5472 18.8082 16.3563 18.2859 16.3563C17.7635 16.3563 17.3115 16.5472 16.9298 16.9289C16.5481 17.3105 16.3573 17.7626 16.3573 18.2849C16.3573 18.8072 16.5481 19.2592 16.9298 19.6409C17.3115 20.0226 17.7635 20.2134 18.2859 20.2134C18.8082 20.2134 19.2602 20.0226 19.6419 19.6409C20.0236 19.2592 20.2144 18.8072 20.2144 18.2849ZM8.643 6.71345C8.643 6.19113 8.45215 5.73912 8.07045 5.35742C7.68876 4.97573 7.23675 4.78488 6.71443 4.78488C6.1921 4.78488 5.74009 4.97573 5.3584 5.35742C4.9767 5.73912 4.78585 6.19113 4.78585 6.71345C4.78585 7.23577 4.9767 7.68778 5.3584 8.06948C5.74009 8.45117 6.1921 8.64202 6.71443 8.64202C7.23675 8.64202 7.68876 8.45117 8.07045 8.06948C8.45215 7.68778 8.643 7.23577 8.643 6.71345ZM24.0716 18.2849C24.0716 19.882 23.5066 21.2455 22.3765 22.3756C21.2465 23.5056 19.883 24.0706 18.2859 24.0706C16.6888 24.0706 15.3252 23.5056 14.1952 22.3756C13.0652 21.2455 12.5001 19.882 12.5001 18.2849C12.5001 16.6878 13.0652 15.3242 14.1952 14.1942C15.3252 13.0642 16.6888 12.4992 18.2859 12.4992C19.883 12.4992 21.2465 13.0642 22.3765 14.1942C23.5066 15.3242 24.0716 16.6878 24.0716 18.2849ZM22.6251 1.89202C22.6251 2.09291 22.5598 2.28376 22.4293 2.46456L6.51855 23.6789C6.32771 23.94 6.07157 24.0706 5.75014 24.0706H3.33943C3.07826 24.0706 2.85226 23.9752 2.66141 23.7843C2.47056 23.5935 2.37514 23.3675 2.37514 23.1063C2.37514 22.9054 2.44043 22.7146 2.57101 22.5338L18.4817 1.31948C18.6726 1.05831 18.9287 0.927734 19.2501 0.927734H21.6609C21.922 0.927734 22.148 1.02316 22.3389 1.21401C22.5297 1.40485 22.6251 1.63086 22.6251 1.89202ZM12.5001 6.71345C12.5001 8.31055 11.9351 9.67411 10.8051 10.8041C9.67508 11.9342 8.31152 12.4992 6.71443 12.4992C5.11733 12.4992 3.75377 11.9342 2.62374 10.8041C1.49372 9.67411 0.928711 8.31055 0.928711 6.71345C0.928711 5.11635 1.49372 3.75279 2.62374 2.62277C3.75377 1.49275 5.11733 0.927734 6.71443 0.927734C8.31152 0.927734 9.67508 1.49275 10.8051 2.62277C11.9351 3.75279 12.5001 5.11635 12.5001 6.71345Z" fill="white"/>
</svg>
