<svg width="60" height="60" viewBox="0 0 60 60" fill="none" xmlns="http://www.w3.org/2000/svg">
<rect opacity="0.2" width="60" height="60" rx="30" fill="#FFD66B"/>
<path d="M31.5755 22.9497H20.6258C19.1816 22.9497 18 24.1313 18 25.5755V34.4245C18 35.8687 19.1816 37.0503 20.6258 37.0503H31.5755C33.0197 37.0503 34.2013 35.8687 34.2013 34.4245V25.5755C34.2013 24.105 33.0197 22.9497 31.5755 22.9497Z" fill="#FFC327"/>
<path d="M40.0568 24.3939C39.8993 24.4201 39.7417 24.4989 39.6105 24.5777L35.5142 26.9409V33.0328L39.6367 35.396C40.3982 35.8424 41.3435 35.5798 41.7899 34.8184C41.9212 34.582 41.9999 34.3194 41.9999 34.0306V25.9168C41.9999 24.9453 41.0809 24.1575 40.0568 24.3939Z" fill="#FFC327"/>
</svg>
