<svg width="60" height="60" viewBox="0 0 60 60" fill="none" xmlns="http://www.w3.org/2000/svg">
<rect opacity="0.1" width="60" height="60" rx="30" fill="#605BFF"/>
<path fill-rule="evenodd" clip-rule="evenodd" d="M33.164 24.0825C33.4791 24.0868 33.7949 24.0912 34.1119 24.0944C37.5172 24.0944 40 26.5222 40 29.8748V34.1811C40 37.5337 37.5172 39.9615 34.1119 39.9615C32.7478 39.9904 31.3837 40 30.0098 40C28.6359 40 27.2522 39.9904 25.8881 39.9615C22.4828 39.9615 20 37.5337 20 34.1811V29.8748C20 26.5222 22.4828 24.0944 25.8979 24.0944C27.1835 24.0751 28.4985 24.0559 29.8332 24.0559V23.8921C29.8332 23.2274 29.2738 22.6879 28.6065 22.6879H27.6349C26.526 22.6879 25.6232 21.8015 25.6232 20.7225C25.6232 20.3276 25.9568 20 26.3592 20C26.7713 20 27.0952 20.3276 27.0952 20.7225C27.0952 21.0116 27.3405 21.2428 27.6349 21.2428H28.6065C30.0883 21.2524 31.2954 22.4374 31.3052 23.8825V24.0655C31.9239 24.0655 32.5425 24.074 33.164 24.0825ZM28.8518 32.7457H27.8214V33.7669C27.8214 34.1618 27.4877 34.4894 27.0854 34.4894C26.6732 34.4894 26.3494 34.1618 26.3494 33.7669V32.7457H25.3091C24.9068 32.7457 24.5731 32.4277 24.5731 32.0231C24.5731 31.6281 24.9068 31.3006 25.3091 31.3006H26.3494V30.289C26.3494 29.894 26.6732 29.5665 27.0854 29.5665C27.4877 29.5665 27.8214 29.894 27.8214 30.289V31.3006H28.8518C29.2542 31.3006 29.5878 31.6281 29.5878 32.0231C29.5878 32.4277 29.2542 32.7457 28.8518 32.7457ZM33.0226 31.1175H33.1207C33.5231 31.1175 33.8567 30.7996 33.8567 30.395C33.8567 30 33.5231 29.6724 33.1207 29.6724H33.0226C32.6104 29.6724 32.2866 30 32.2866 30.395C32.2866 30.7996 32.6104 31.1175 33.0226 31.1175ZM34.7007 34.4316H34.7988C35.2012 34.4316 35.5348 34.1137 35.5348 33.7091C35.5348 33.3141 35.2012 32.9865 34.7988 32.9865H34.7007C34.2875 32.9865 33.9647 33.3141 33.9647 33.7091C33.9647 34.1137 34.2875 34.4316 34.7007 34.4316Z" fill="#605BFF"/>
</svg>
