<svg width="60" height="60" viewBox="0 0 60 60" fill="none" xmlns="http://www.w3.org/2000/svg">
<rect opacity="0.1" width="60" height="60" rx="30" fill="#5B93FF"/>
<g clip-path="url(#clip0)">
<path d="M29.8289 29.5609C31.4172 29.5609 32.7925 28.9912 33.9162 27.8673C35.0399 26.7436 35.6095 25.3687 35.6095 23.7803C35.6095 22.1924 35.0399 20.8172 33.916 19.6932C32.7921 18.5696 31.417 18 29.8289 18C28.2405 18 26.8656 18.5696 25.7418 19.6934C24.6181 20.8171 24.0483 22.1922 24.0483 23.7803C24.0483 25.3687 24.6181 26.7438 25.742 27.8675C26.8659 28.991 28.241 29.5609 29.8289 29.5609Z" fill="#5B93FF"/>
<path d="M39.9435 36.4547C39.9111 35.9871 39.8455 35.477 39.749 34.9383C39.6516 34.3955 39.5262 33.8825 39.376 33.4136C39.2209 32.9289 39.01 32.4502 38.7493 31.9916C38.4786 31.5155 38.1608 31.1009 37.8041 30.7598C37.4311 30.403 36.9744 30.116 36.4463 29.9067C35.9201 29.6985 35.3369 29.5931 34.7131 29.5931C34.4681 29.5931 34.2311 29.6936 33.7736 29.9915C33.492 30.1752 33.1625 30.3876 32.7949 30.6225C32.4805 30.8228 32.0546 31.0105 31.5285 31.1804C31.0153 31.3465 30.4942 31.4307 29.9798 31.4307C29.4655 31.4307 28.9445 31.3465 28.4308 31.1804C27.9052 31.0107 27.4793 30.823 27.1653 30.6227C26.8011 30.39 26.4715 30.1775 26.1857 29.9913C25.7287 29.6934 25.4916 29.5929 25.2466 29.5929C24.6225 29.5929 24.0395 29.6985 23.5135 29.9069C22.9858 30.1158 22.5289 30.4028 22.1556 30.76C21.7991 31.1013 21.481 31.5157 21.2107 31.9916C20.9502 32.4502 20.7393 32.9287 20.584 33.4137C20.434 33.8827 20.3086 34.3955 20.2112 34.9383C20.1147 35.4762 20.0491 35.9865 20.0167 36.4553C19.9849 36.9145 19.9688 37.3911 19.9688 37.8725C19.9688 39.1253 20.367 40.1395 21.1523 40.8875C21.928 41.6256 22.9543 42.0001 24.2023 42.0001H35.7584C37.0065 42.0001 38.0324 41.6258 38.8082 40.8875C39.5937 40.1401 39.992 39.1257 39.992 37.8723C39.9918 37.3888 39.9755 36.9118 39.9435 36.4547Z" fill="#5B93FF"/>
</g>
<defs>
<clipPath id="clip0">
<rect width="23.9999" height="24" fill="white" transform="translate(18 18)"/>
</clipPath>
</defs>
</svg>
