<svg width="195" height="74" viewBox="0 0 323 74" fill="none" xmlns="http://www.w3.org/2000/svg">
<path d="M32.2986 30.465C33.0389 31.6656 33.8014 32.6896 34.3363 33.8188C36.8088 38.9625 34.4959 45.9299 29.5289 48.1867C28.454 48.6758 27.2042 48.8813 26.0138 48.9916C24.5551 49.1275 23.0726 49.0545 21.5986 49.0137C20.8361 48.9916 20.5322 49.243 20.5526 50.0326C20.5916 51.6441 20.6273 53.2591 20.5356 54.8706C20.2707 59.5829 16.9016 64.2375 11.6543 65.0441C7.81655 65.6334 3.64085 63.458 1.65233 59.8546C0.482317 57.7353 -0.0050549 55.4564 3.94987e-05 53.0841C0.0204171 41.5368 3.94948e-05 29.9895 0.169853 18.4524C0.25476 12.6991 4.70727 7.56566 11.0141 7.7151C14.9198 7.8085 18.8256 7.7151 22.7313 7.73717C27.2008 7.75755 31.6736 7.93076 36.1465 7.81529C40.9692 7.68963 44.6542 10.86 46.135 14.7318C48.1405 19.9773 46.2946 25.9514 41.7487 28.9112C39.9453 30.0846 37.9245 30.4073 35.8358 30.4599C34.6895 30.4871 33.5331 30.465 32.2986 30.465ZM2.43517 52.0177C2.57611 51.7443 2.65762 51.6068 2.71875 51.4624C4.16047 48.0662 6.81126 46.5497 10.4164 46.5497C15.4531 46.5497 20.488 46.599 25.5298 46.5497C26.5165 46.5399 27.4918 46.338 28.4013 45.9554C31.8553 44.4627 33.6893 40.5112 32.8471 36.6156C32.0133 32.7626 29.0364 30.3529 25.0832 30.3444C20.1314 30.3342 15.1797 30.3631 10.2296 30.3156C7.60938 30.2918 5.33558 29.4156 3.77669 27.1825C3.30121 26.5033 2.95309 25.7289 2.44026 24.8051L2.43517 52.0177Z" fill="#F2B10F"/>
<path d="M176.421 63.1174V10.1675C176.794 9.96118 177.095 9.63263 177.404 9.64027C185.3 9.80836 193.197 9.38048 201.007 10.3508C215.278 12.1311 223.067 21.6514 223.26 36.3292C223.461 50.0366 215.142 61.0697 201.725 62.9341C193.584 64.042 185.143 63.1174 176.421 63.1174ZM187.906 53.4214C192.213 53.047 196.197 53.0547 200.024 52.2906C207.31 50.8389 211.251 45.5057 211.509 37.5135C211.782 29.1852 208.265 23.2942 201.108 21.4298C196.93 20.3449 192.493 20.3678 187.899 19.9017L187.906 53.4214Z" fill="#3F3E3C"/>
<path d="M275.988 15.7072L267.884 24.381C262.667 19.9549 256.925 18.6461 250.655 20.4546C244.367 22.275 240.9 26.794 239.974 33.062C238.94 40.0653 240.239 46.5475 246.607 50.7381C252.278 54.4646 258.401 54.0649 264.388 51.2593C264.758 51.0219 265.073 50.7076 265.31 50.3379C265.546 49.9682 265.7 49.5518 265.759 49.1176C265.938 46.8973 265.824 44.6486 265.824 42.0785H257.044V32.1054H276.268C276.447 32.9745 276.567 33.8546 276.627 34.7397C276.627 41.7644 276.742 48.7892 276.555 55.8068C276.555 57.0418 275.586 58.9194 274.574 59.3763C264.977 63.5169 255.034 64.9661 244.898 61.6464C233.829 58.0198 227.225 47.4399 227.935 35.0609C228.653 22.3322 236.277 13.0372 248.1 10.4957C254.676 9.04792 261.527 9.44334 267.891 11.638C270.518 12.5232 272.909 14.1295 275.988 15.7072Z" fill="#3F3E3C"/>
<path d="M123.407 9.64014H134.304C134.369 11.1134 134.483 12.4099 134.483 13.7212C134.483 23.0546 134.426 32.3879 134.548 41.7139C134.62 47.8282 138.259 52.2407 143.414 52.9111C149.702 53.7287 154.698 48.9258 154.777 41.7508C154.885 32.6605 154.777 23.5702 154.777 14.4947V9.8022H165.782C165.949 10.5858 166.059 11.3812 166.112 12.1816C166.112 22.3768 166.241 32.5721 166.112 42.76C165.947 54.156 159.156 61.6625 147.907 63.2242C136.659 64.7859 126.996 59.0621 124.168 48.9479C123.757 47.6656 123.516 46.3327 123.45 44.9847C123.385 33.3308 123.407 21.6918 123.407 9.64014Z" fill="#3F3E3C"/>
<path d="M321.082 9.64014V19.9435H298.168V30.7357H319.653V41.3293H298.118V52.786H322.309V63.479H286.905V9.64014H321.082Z" fill="#3F3E3C"/>
<path d="M81.6428 9.64014H115.123V20.0458H92.7767V31.4446H113.429V42.2933H92.6116V63.4789H81.6428V9.64014Z" fill="#3F3E3C"/>
<path d="M65.7373 0L65.7373 73.2618" stroke="#3F3E3C" stroke-width="1.5"/>
</svg>
