<svg width="61" height="61" viewBox="0 0 61 61" fill="none" xmlns="http://www.w3.org/2000/svg">
<path d="M47.6633 52.6928H37.804H35.1492H34.5758V39.4682H38.9009C39.9978 39.4682 40.6459 38.2218 39.9978 37.3244L31.5844 25.6828C31.0484 24.9349 29.9391 24.9349 29.4031 25.6828L20.9898 37.3244C20.3416 38.2218 20.9773 39.4682 22.0866 39.4682H26.4117V52.6928H25.8384H23.1835H11.7538C5.21005 52.3313 0 46.2114 0 39.5804C0 35.006 2.48038 31.0175 6.15734 28.8612C5.8208 27.9513 5.6463 26.9791 5.6463 25.957C5.6463 21.2829 9.42297 17.5062 14.0971 17.5062C15.1067 17.5062 16.0789 17.6807 16.9888 18.0173C19.6935 12.2837 25.5268 8.30762 32.3073 8.30762C41.0821 8.32008 48.3114 15.0383 49.134 23.6012C55.8772 24.7604 61 31.005 61 38.0722C61 45.6256 55.1169 52.1693 47.6633 52.6928Z" fill="#EDEDEE"/>
</svg>
